<?xml version="1.0" encoding="UTF-8"?>
<svg version="1.1" xmlns="http://www.w3.org/2000/svg" width="150" height="150">
<path d="M0 0 C6.60231209 -0.35867691 10.91132614 0.22271017 17 3 C18.66155264 3.28199396 20.32929994 3.52855228 22 3.75 C29.62595285 4.99118957 36.16392534 8.55897139 43 12 C43.90234375 12.44472656 44.8046875 12.88945312 45.734375 13.34765625 C47.49592722 14.2190624 49.24938325 15.10682819 51 16 C51 16.66 51 17.32 51 18 C51.73089844 18.23460938 52.46179688 18.46921875 53.21484375 18.7109375 C60.68337027 22.16761878 66.11545171 30.46812391 69 38 C69.29648438 38.67675781 69.59296875 39.35351562 69.8984375 40.05078125 C72.09777096 45.89213022 72.28192435 51.58018576 72.3125 57.75 C72.31797852 58.56637939 72.32345703 59.38275879 72.32910156 60.22387695 C72.27385431 64.87750566 71.74287933 68.62343636 70 73 C69.608125 74.19625 69.21625 75.3925 68.8125 76.625 C66.1710652 83.5789814 62.91926638 91.73217399 56 95 C55.53207031 95.93972656 55.53207031 95.93972656 55.0546875 96.8984375 C53.62635513 99.74452199 51.74947065 100.85718149 49.125 102.625 C48.26132813 103.21539062 47.39765625 103.80578125 46.5078125 104.4140625 C40.83743842 108 40.83743842 108 37 108 C37 108.66 37 109.32 37 110 C36.34 110 35.68 110 35 110 C35.05220703 110.92232422 35.05220703 110.92232422 35.10546875 111.86328125 C35.13253906 112.67152344 35.15960938 113.47976562 35.1875 114.3125 C35.23970703 115.51326172 35.23970703 115.51326172 35.29296875 116.73828125 C35 119 35 119 33.61328125 120.79296875 C32 122 32 122 30 122 C30 122.99 30 123.98 30 125 C30.56589844 125.23074219 31.13179688 125.46148437 31.71484375 125.69921875 C37.67457627 128.34915254 37.67457627 128.34915254 39.25 131.5 C38.91090403 134.89095968 37.39626187 135.60373813 35 138 C33.7761557 140.93722633 32.86325749 143.93935981 32 147 C31.34 147 30.68 147 30 147 C29.64949536 141.158256 29.83272665 137.1468192 33 132 C32.13375 131.814375 32.13375 131.814375 31.25 131.625 C28.82599488 130.95166524 27.07041295 130.44928906 25 129 C23.5625 126.1875 23.5625 126.1875 23 123 C24.25 120.125 24.25 120.125 26 118 C26.66 118 27.32 118 28 118 C28.33 116.35 28.66 114.7 29 113 C26.72886197 113.14100857 24.45809275 113.28796755 22.1875 113.4375 C20.92292969 113.51871094 19.65835938 113.59992188 18.35546875 113.68359375 C15.00818107 113.87184547 15.00818107 113.87184547 12 115 C9.93930694 115.09584619 7.87541516 115.12983685 5.8125 115.125 C4.18248047 115.12886719 4.18248047 115.12886719 2.51953125 115.1328125 C-0.6615052 115.01277339 -3.75625109 114.69886607 -6.90942383 114.27197266 C-9.05683822 113.99260566 -11.20362861 113.77493709 -13.359375 113.5703125 C-14.08253906 113.49683594 -14.80570313 113.42335938 -15.55078125 113.34765625 C-17.03163981 113.19772918 -18.51348534 113.05728217 -19.99609375 112.92578125 C-24.22787084 112.47753197 -26.81353521 111.83324817 -30 109 C-32.64934822 108.28566879 -32.64934822 108.28566879 -35 108 C-35 110.31 -35 112.62 -35 115 C-34.01 115.495 -34.01 115.495 -33 116 C-33.99 116.495 -33.99 116.495 -35 117 C-35.99 116.505 -35.99 116.505 -37 116 C-36.88140625 116.61488281 -36.7628125 117.22976562 -36.640625 117.86328125 C-36.51171875 118.67152344 -36.3828125 119.47976562 -36.25 120.3125 C-36.11078125 121.11300781 -35.9715625 121.91351563 -35.828125 122.73828125 C-35.91320313 123.85783203 -35.91320313 123.85783203 -36 125 C-36.6496875 125.433125 -37.299375 125.86625 -37.96875 126.3125 C-40.41312084 127.94541055 -40.41312084 127.94541055 -40.390625 131.57421875 C-40.3641199 132.94585748 -40.3165309 134.31721938 -40.25 135.6875 C-40.22292969 136.7403418 -40.22292969 136.7403418 -40.1953125 137.81445312 C-40.14826213 139.54355436 -40.07651873 141.27195205 -40 143 C-43 142 -43 142 -44.16796875 139.890625 C-44.67263672 138.58351562 -44.67263672 138.58351562 -45.1875 137.25 C-45.53167969 136.38890625 -45.87585938 135.5278125 -46.23046875 134.640625 C-47.02557224 131.91224957 -47.24288916 129.82418181 -47 127 C-45.625 124.6875 -45.625 124.6875 -44 123 C-43.34 123 -42.68 123 -42 123 C-42.49113281 122.17242187 -42.98226562 121.34484375 -43.48828125 120.4921875 C-45.19360386 116.55276007 -45.34615733 113.32331691 -45.1875 109.125 C-45.16719727 108.09246094 -45.16719727 108.09246094 -45.14648438 107.0390625 C-45.1114837 105.35902999 -45.05768954 103.6794065 -45 102 C-46.65 101.34 -48.3 100.68 -50 100 C-50 99.34 -50 98.68 -50 98 C-50.680625 97.79375 -51.36125 97.5875 -52.0625 97.375 C-58.96707297 94.14307223 -63.08302696 89.23751935 -66.1875 82.375 C-67 80 -67 80 -67 77 C-67.66 77 -68.32 77 -69 77 C-71.25941552 73.40783913 -71.18757974 70.54695953 -71.046875 66.36328125 C-71.00433594 65.06326172 -70.96179688 63.76324219 -70.91796875 62.42382812 C-70.89009277 61.74779541 -70.8622168 61.0717627 -70.83349609 60.37524414 C-70.75099045 58.33696878 -70.68863889 56.29882075 -70.62890625 54.25976562 C-69.89107147 34.04907522 -69.89107147 34.04907522 -63 26 C-60.0625 24.125 -60.0625 24.125 -57 23 C-55.989375 22.608125 -54.97875 22.21625 -53.9375 21.8125 C-51.0519267 21.0143627 -48.9639885 20.59946101 -46 21 C-44.5625 22.3125 -44.5625 22.3125 -43 24 C-38.58529567 26.51893977 -34.47786551 27.73138559 -29.5 28.6875 C-28.2315625 28.93886719 -26.963125 29.19023437 -25.65625 29.44921875 C-20.82602438 30.26550868 -20.82602438 30.26550868 -16 30 C-13.75873531 27.42515787 -13.75873531 27.42515787 -12 24 C-11.25658161 22.80236187 -10.50506489 21.60971792 -9.74609375 20.421875 C-8.58129616 18.5708554 -7.4183958 16.71912711 -6.26757812 14.859375 C-4.3602591 11.84405634 -3.01119325 10.00746216 0 8 C3 8.0625 3 8.0625 6 9 C8.48088027 11.83529174 9.17351494 14.58441763 9.875 18.1875 C10.23835668 19.79434399 10.6141072 21.39841877 11 23 C11.18691406 23.89074219 11.37382813 24.78148438 11.56640625 25.69921875 C12.63308888 28.97579993 13.44654308 30.64363666 16 33 C21.37240475 34.88928463 27.11025338 35.20663706 32.74389648 35.71899414 C35.94339296 36.11750301 38.92502138 37.05129711 42 38 C43.89020937 38.38304905 45.78607158 38.73971829 47.6875 39.0625 C50.83091488 39.6004819 53.91629909 40.18393863 57 41 C57 43.31 57 45.62 57 48 C56.34 48 55.68 48 55 48 C54.67 48.99 54.34 49.98 54 51 C51.99609375 51.80859375 51.99609375 51.80859375 49.4375 52.4375 C45.89409102 53.3932545 42.75604341 54.49077279 39.5 56.1875 C36 58 36 58 34 58 C34 58.66 34 59.32 34 60 C33.01 60.495 33.01 60.495 32 61 C32.19335938 61.556875 32.38671875 62.11375 32.5859375 62.6875 C32.97652344 63.8321875 32.97652344 63.8321875 33.375 65 C33.63023438 65.7425 33.88546875 66.485 34.1484375 67.25 C36.40106898 74.52455302 37.48786892 81.4275404 38.125 89 C38.21136719 89.96550781 38.29773438 90.93101563 38.38671875 91.92578125 C38.59680508 94.28341676 38.80110492 96.64139857 39 99 C39.78375 98.505 40.5675 98.01 41.375 97.5 C44 96 44 96 46 96 C46 95.34 46 94.68 46 94 C48.375 91.375 48.375 91.375 51 89 C51.66 89 52.32 89 53 89 C54.20628008 86.66785852 55.1654738 84.50357861 56 82 C56.66 82 57.32 82 58 82 C58.1546875 81.0409375 58.1546875 81.0409375 58.3125 80.0625 C58.89417608 77.47139746 59.62439516 75.12367724 60.5 72.625 C61.84258324 68.72759818 62.49009778 65.07921777 63 61 C63.33 60.67 63.66 60.34 64 60 C64.09873816 58.00200428 64.12971799 56.00042842 64.125 54 C64.12757813 52.906875 64.13015625 51.81375 64.1328125 50.6875 C64.30547755 48.08169646 64.30547755 48.08169646 63 47 C62.896875 45.989375 62.79375 44.97875 62.6875 43.9375 C61.98616681 39.92077353 60.78319584 37.21938321 58.83984375 33.69921875 C58 32 58 32 58 30 C57.34 30 56.68 30 56 30 C54.4921875 28.5390625 54.4921875 28.5390625 52.875 26.625 C52.33617188 25.99851562 51.79734375 25.37203125 51.2421875 24.7265625 C50 23 50 23 50 21 C49.46246094 20.74992187 48.92492187 20.49984375 48.37109375 20.2421875 C45.46795653 18.72126883 42.80399067 16.92103221 40.0625 15.125 C30.94132919 9.37556893 21.34869331 7.01451348 10.74609375 5.4375 C7.0885161 4.85478493 3.57448081 3.96236022 0 3 C0 2.01 0 1.02 0 0 Z M-54 31 C-61.26717774 39.71247079 -60.63356052 52.26281637 -60 63 C-59.15105728 70.94442692 -57.07731999 78.59944332 -50.875 84 C-48.31007017 86.19035483 -48.31007017 86.19035483 -46 86 C-45.938125 86.598125 -45.87625 87.19625 -45.8125 87.8125 C-44.6763243 90.87143458 -42.82669858 91.55041099 -40 93 C-39.80664062 92.38511719 -39.61328125 91.77023438 -39.4140625 91.13671875 C-39.15367188 90.32847656 -38.89328125 89.52023438 -38.625 88.6875 C-38.24214844 87.48673828 -38.24214844 87.48673828 -37.8515625 86.26171875 C-37 84 -37 84 -35 81 C-34.28397732 78.72327163 -33.62343906 76.42880214 -33 74.125 C-31.17721519 67.41772152 -31.17721519 67.41772152 -29.8515625 64.29296875 C-28.63143212 61.0075718 -29.33779443 58.37724843 -30 55 C-30.66 55 -31.32 55 -32 55 C-32.27457031 54.29746094 -32.54914062 53.59492187 -32.83203125 52.87109375 C-37.57652713 40.61866692 -37.57652713 40.61866692 -47 32 C-49.44305835 31.29857504 -51.43446705 31.10471563 -54 31 Z M-2.4375 86.1875 C-4.91648052 87.94092524 -6.89531358 89.82273818 -9 92 C-9.99 92.495 -9.99 92.495 -11 93 C-11 93.66 -11 94.32 -11 95 C-11.721875 95.2475 -12.44375 95.495 -13.1875 95.75 C-16.27606582 97.12269592 -18.51011418 98.72353296 -21 101 C-21 101.66 -21 102.32 -21 103 C-11.63782693 104.9381948 -2.46844539 105.19257877 7.0625 105.1875 C8.84684448 105.1884668 8.84684448 105.1884668 10.66723633 105.18945312 C15.59353159 105.15860023 20.18145039 105.10679253 25 104 C21.83525695 100.74483572 18.67247209 97.67991207 15 95 C14.34 95 13.68 95 13 95 C13 94.34 13 93.68 13 93 C10.09451118 90.95830515 8.59857954 90 5 90 C4.731875 89.360625 4.46375 88.72125 4.1875 88.0625 C2.34926146 84.86976991 0.80844776 84.60614083 -2.4375 86.1875 Z " fill="#B0CE27" transform="translate(75,2)"/>
<path d="M0 0 C0 1.65 0 3.3 0 5 C-0.66 5 -1.32 5 -2 5 C-2.1546875 6.36125 -2.1546875 6.36125 -2.3125 7.75 C-2.76617811 11.09254021 -3.62603231 14.19961877 -4.5625 17.4375 C-7.73819418 29.84450127 -7.38338538 44.76617412 -1.28125 56.25390625 C0.57105463 58.77823604 2.81737137 60.25065423 5.51171875 61.796875 C7.43951549 63.35530386 7.49974548 64.62860119 8 67 C9.83284443 68.12516085 9.83284443 68.12516085 12 69 C14.25 70.4375 14.25 70.4375 16 72 C16 72.99 16 73.98 16 75 C16.67546875 75.18175781 17.3509375 75.36351563 18.046875 75.55078125 C18.93890625 75.80214844 19.8309375 76.05351563 20.75 76.3125 C21.63171875 76.55613281 22.5134375 76.79976563 23.421875 77.05078125 C26.05772505 78.02125331 27.85407326 79.21005644 30 81 C29.67 80.01 29.34 79.02 29 78 C31.11080801 71.66757597 39.2731619 67.91744582 45 65 C47.9375 64.25 47.9375 64.25 50 64 C49.01 64.495 49.01 64.495 48 65 C47.71125 65.66 47.4225 66.32 47.125 67 C46 69 46 69 43.875 69.75 C43.25625 69.8325 42.6375 69.915 42 70 C42 70.66 42 71.32 42 72 C40.06640625 73.4375 40.06640625 73.4375 37.5625 75 C34.18993349 76.9529916 34.18993349 76.9529916 32 80 C42.32271713 80.90530454 52.52258703 81.1248923 62.875 81.0625 C64.35286304 81.05746663 65.83072777 81.05290702 67.30859375 81.04882812 C70.87243195 81.03798718 74.43620447 81.02082779 78 81 C78.495 85.455 78.495 85.455 79 90 C78.24074219 90.06058594 77.48148437 90.12117188 76.69921875 90.18359375 C75.70535156 90.26738281 74.71148437 90.35117188 73.6875 90.4375 C72.70136719 90.51871094 71.71523437 90.59992188 70.69921875 90.68359375 C67.90624401 90.91812559 67.90624401 90.91812559 65 92 C62.93930694 92.09584619 60.87541516 92.12983685 58.8125 92.125 C57.18248047 92.12886719 57.18248047 92.12886719 55.51953125 92.1328125 C52.3384948 92.01277339 49.24374891 91.69886607 46.09057617 91.27197266 C43.94316178 90.99260566 41.79637139 90.77493709 39.640625 90.5703125 C38.91746094 90.49683594 38.19429687 90.42335938 37.44921875 90.34765625 C35.96836019 90.19772918 34.48651466 90.05728217 33.00390625 89.92578125 C28.77212916 89.47753197 26.18646479 88.83324817 23 86 C20.35065178 85.28566879 20.35065178 85.28566879 18 85 C18 87.31 18 89.62 18 92 C18.99 92.495 18.99 92.495 20 93 C19.01 93.495 19.01 93.495 18 94 C17.01 93.505 17.01 93.505 16 93 C16.11859375 93.61488281 16.2371875 94.22976562 16.359375 94.86328125 C16.48828125 95.67152344 16.6171875 96.47976562 16.75 97.3125 C16.88921875 98.11300781 17.0284375 98.91351563 17.171875 99.73828125 C17.08679687 100.85783203 17.08679687 100.85783203 17 102 C16.3503125 102.433125 15.700625 102.86625 15.03125 103.3125 C12.58687916 104.94541055 12.58687916 104.94541055 12.609375 108.57421875 C12.6358801 109.94585748 12.6834691 111.31721938 12.75 112.6875 C12.76804687 113.38939453 12.78609375 114.09128906 12.8046875 114.81445312 C12.85173787 116.54355436 12.92348127 118.27195205 13 120 C10 119 10 119 8.83203125 116.890625 C8.49558594 116.01921875 8.15914062 115.1478125 7.8125 114.25 C7.46832031 113.38890625 7.12414062 112.5278125 6.76953125 111.640625 C5.97442776 108.91224957 5.75711084 106.82418181 6 104 C7.375 101.6875 7.375 101.6875 9 100 C9.66 100 10.32 100 11 100 C10.50886719 99.17242187 10.01773438 98.34484375 9.51171875 97.4921875 C7.80639614 93.55276007 7.65384267 90.32331691 7.8125 86.125 C7.83280273 85.09246094 7.83280273 85.09246094 7.85351562 84.0390625 C7.8885163 82.35902999 7.94231046 80.6794065 8 79 C6.35 78.34 4.7 77.68 3 77 C3 76.34 3 75.68 3 75 C2.319375 74.79375 1.63875 74.5875 0.9375 74.375 C-5.96707297 71.14307223 -10.08302696 66.23751935 -13.1875 59.375 C-14 57 -14 57 -14 54 C-14.66 54 -15.32 54 -16 54 C-18.25941552 50.40783913 -18.18757974 47.54695953 -18.046875 43.36328125 C-18.00433594 42.06326172 -17.96179688 40.76324219 -17.91796875 39.42382812 C-17.89009277 38.74779541 -17.8622168 38.0717627 -17.83349609 37.37524414 C-17.75099045 35.33696878 -17.68863889 33.29882075 -17.62890625 31.25976562 C-16.89082952 11.0424476 -16.89082952 11.0424476 -10 3 C-6.22653309 0.53569508 -4.53886709 0 0 0 Z " fill="#9EC986" transform="translate(22,25)"/>
<path d="M0 0 C2.48088027 2.83529174 3.17351494 5.58441763 3.875 9.1875 C4.23835668 10.79434399 4.6141072 12.39841877 5 14 C5.18691406 14.89074219 5.37382813 15.78148438 5.56640625 16.69921875 C6.63308888 19.97579993 7.44654308 21.64363666 10 24 C15.37240475 25.88928463 21.11025338 26.20663706 26.74389648 26.71899414 C29.94339296 27.11750301 32.92502138 28.05129711 36 29 C37.89020937 29.38304905 39.78607158 29.73971829 41.6875 30.0625 C44.83091488 30.6004819 47.91629909 31.18393863 51 32 C51 34.31 51 36.62 51 39 C50.34 39 49.68 39 49 39 C48.67 39.99 48.34 40.98 48 42 C45.99609375 42.80859375 45.99609375 42.80859375 43.4375 43.4375 C39.89409102 44.3932545 36.75604341 45.49077279 33.5 47.1875 C30 49 30 49 28 49 C28 49.66 28 50.32 28 51 C27.01 51.495 27.01 51.495 26 52 C26.19335938 52.556875 26.38671875 53.11375 26.5859375 53.6875 C26.84632812 54.450625 27.10671875 55.21375 27.375 56 C27.63023438 56.7425 27.88546875 57.485 28.1484375 58.25 C30.45531567 65.69973501 31.45534806 72.53279907 31.8125 80.3125 C31.87630859 81.30056641 31.94011719 82.28863281 32.00585938 83.30664062 C32.05162109 84.25345703 32.09738281 85.20027344 32.14453125 86.17578125 C32.21184448 87.45835815 32.21184448 87.45835815 32.28051758 88.7668457 C32 91 32 91 30.7409668 92.80151367 C29 94 29 94 25 94 C25 92.68 25 91.36 25 90 C24.34 90 23.68 90 23 90 C22.87625 89.236875 22.7525 88.47375 22.625 87.6875 C20.33003185 83.89197575 17.77226729 83.69275776 13.61328125 82.609375 C12.02849301 82.23982797 10.44278789 81.87414517 8.85546875 81.515625 C7 81.0625 7 81.0625 4 80 C2.75 77.9375 2.75 77.9375 2 76 C-1.47325181 74.8422494 -4.36067448 74.93133348 -8 75 C-7.505 74.01 -7.505 74.01 -7 73 C-5.35 73 -3.7 73 -2 73 C-1.67 71.35 -1.34 69.7 -1 68 C-0.360625 67.896875 0.27875 67.79375 0.9375 67.6875 C1.618125 67.460625 2.29875 67.23375 3 67 C3.495 65.515 3.495 65.515 4 64 C4.99 63.505 4.99 63.505 6 63 C6.33 62.01 6.66 61.02 7 60 C6.34 60 5.68 60 5 60 C5.66 58.68 6.32 57.36 7 56 C9.97 56.33 12.94 56.66 16 57 C16.495 56.01 16.495 56.01 17 55 C17.99 54.67 18.98 54.34 20 54 C20.41772532 48.5695708 19.15507411 43.94283053 17 39 C16.34 38.34 15.68 37.68 15 37 C14.875 34.375 14.875 34.375 15 32 C14.34 32 13.68 32 13 32 C13 31.01 13 30.02 13 29 C13.66 29 14.32 29 15 29 C15 28.34 15 27.68 15 27 C13.576875 27.0309375 13.576875 27.0309375 12.125 27.0625 C9 27 9 27 7 26 C4.90097173 21.2294812 3.6613804 16.15876713 3 11 C2.34 11 1.68 11 1 11 C0.34 7.7 -0.32 4.4 -1 1 C-2.65 1.33 -4.3 1.66 -6 2 C-5.0470642 9.38525241 -2.66417636 13.23050976 2.3203125 18.73828125 C4 21 4 21 4 25 C1.04335481 26.4783226 -1.74229737 26.06032783 -5 26 C-5 25.34 -5 24.68 -5 24 C-5.61488281 24.01160156 -6.22976562 24.02320312 -6.86328125 24.03515625 C-7.67152344 24.04417969 -8.47976562 24.05320312 -9.3125 24.0625 C-10.51326172 24.07990234 -10.51326172 24.07990234 -11.73828125 24.09765625 C-14 24 -14 24 -17 23 C-17.33 21.35 -17.66 19.7 -18 18 C-17.34 18 -16.68 18 -16 18 C-15.979375 16.88625 -15.95875 15.7725 -15.9375 14.625 C-15.24673268 8.77441009 -11.71570997 4.40221528 -8 0 C-5.00422405 -1.49788797 -3.16806651 -0.90516186 0 0 Z " fill="#8AB51B" transform="translate(81,11)"/>
<path d="M0 0 C6.60231209 -0.35867691 10.91132614 0.22271017 17 3 C18.66155264 3.28199396 20.32929994 3.52855228 22 3.75 C29.62595285 4.99118957 36.16392534 8.55897139 43 12 C43.90234375 12.44472656 44.8046875 12.88945312 45.734375 13.34765625 C47.49592722 14.2190624 49.24938325 15.10682819 51 16 C51 16.66 51 17.32 51 18 C51.73089844 18.23460938 52.46179688 18.46921875 53.21484375 18.7109375 C60.68337027 22.16761878 66.11545171 30.46812391 69 38 C69.29648438 38.67675781 69.59296875 39.35351562 69.8984375 40.05078125 C72.09777096 45.89213022 72.28192435 51.58018576 72.3125 57.75 C72.31797852 58.56637939 72.32345703 59.38275879 72.32910156 60.22387695 C72.27385431 64.87750566 71.74287933 68.62343636 70 73 C69.608125 74.19625 69.21625 75.3925 68.8125 76.625 C66.1710652 83.5789814 62.91926638 91.73217399 56 95 C55.53207031 95.93972656 55.53207031 95.93972656 55.0546875 96.8984375 C53.62635513 99.74452199 51.74947065 100.85718149 49.125 102.625 C47.82949219 103.51058594 47.82949219 103.51058594 46.5078125 104.4140625 C40.83743842 108 40.83743842 108 37 108 C37 108.66 37 109.32 37 110 C36.34 110 35.68 110 35 110 C33.75 107.3125 33.75 107.3125 33 104 C34.30135125 102.30824337 35.63755204 100.64295195 37 99 C37.33465889 95.29059225 37.33465889 95.29059225 37 92 C38.4606285 94.64738916 39 95.89448334 39 99 C39.78375 98.505 40.5675 98.01 41.375 97.5 C44 96 44 96 46 96 C46 95.34 46 94.68 46 94 C48.375 91.375 48.375 91.375 51 89 C51.66 89 52.32 89 53 89 C54.20628008 86.66785852 55.1654738 84.50357861 56 82 C56.66 82 57.32 82 58 82 C58.103125 81.360625 58.20625 80.72125 58.3125 80.0625 C58.89417608 77.47139746 59.62439516 75.12367724 60.5 72.625 C61.84258324 68.72759818 62.49009778 65.07921777 63 61 C63.33 60.67 63.66 60.34 64 60 C64.09873816 58.00200428 64.12971799 56.00042842 64.125 54 C64.12757813 52.906875 64.13015625 51.81375 64.1328125 50.6875 C64.30547755 48.08169646 64.30547755 48.08169646 63 47 C62.8453125 45.4840625 62.8453125 45.4840625 62.6875 43.9375 C61.98616681 39.92077353 60.78319584 37.21938321 58.83984375 33.69921875 C58 32 58 32 58 30 C57.34 30 56.68 30 56 30 C54.4921875 28.5390625 54.4921875 28.5390625 52.875 26.625 C52.33617187 25.99851562 51.79734375 25.37203125 51.2421875 24.7265625 C50 23 50 23 50 21 C49.19369141 20.62488281 49.19369141 20.62488281 48.37109375 20.2421875 C45.46795653 18.72126883 42.80399067 16.92103221 40.0625 15.125 C30.94132919 9.37556893 21.34869331 7.01451348 10.74609375 5.4375 C7.0885161 4.85478493 3.57448081 3.96236022 0 3 C0 2.01 0 1.02 0 0 Z " fill="#A3C68B" transform="translate(75,2)"/>
<path d="M0 0 C0 1.65 0 3.3 0 5 C-0.66 5 -1.32 5 -2 5 C-2.1546875 6.36125 -2.1546875 6.36125 -2.3125 7.75 C-2.76617811 11.09254021 -3.62603231 14.19961877 -4.5625 17.4375 C-7.75951284 29.92779037 -7.3038838 44.69170297 -1.2890625 56.28515625 C0.20927034 58.27839297 1.63564842 59.06617434 3.8125 60.25 C5.6484375 61.37109375 5.6484375 61.37109375 7 63 C7.31382934 67.11765739 6.76765152 70.9553151 6 75 C-0.0347634 74.87427576 -2.91979762 72.95424549 -7.2734375 68.8359375 C-11.13742519 64.72717231 -14 59.71556969 -14 54 C-14.66 54 -15.32 54 -16 54 C-18.25941552 50.40783913 -18.18757974 47.54695953 -18.046875 43.36328125 C-18.00433594 42.06326172 -17.96179688 40.76324219 -17.91796875 39.42382812 C-17.89009277 38.74779541 -17.8622168 38.0717627 -17.83349609 37.37524414 C-17.75099045 35.33696878 -17.68863889 33.29882075 -17.62890625 31.25976562 C-16.89082952 11.0424476 -16.89082952 11.0424476 -10 3 C-6.22653309 0.53569508 -4.53886709 0 0 0 Z " fill="#A1C889" transform="translate(22,25)"/>
<path d="M0 0 C7.08076251 -0.40850553 13.19925959 1.09579269 20 3 C20.86454342 9.59214359 21.13652136 16.10939526 21.1875 22.75 C21.20039062 23.56573486 21.21328125 24.38146973 21.2265625 25.22192383 C21.23550311 30.68631459 21.12747091 35.80161339 17.125 39.9375 C15 41 15 41 13.0625 41.0625 C10.56246551 39.77460344 9.31728472 38.01247013 7.625 35.8125 C4.89549089 32.76804753 1.57687515 30.45910631 -1.6953125 28.02734375 C-4.12702454 25.88826146 -5.49060876 23.84613968 -7 21 C-6.01 19.515 -6.01 19.515 -5 18 C-4.40861188 16.0881968 -4.40861188 16.0881968 -4 14.0625 C-3.31355647 11.09511812 -2.36159519 8.72319039 -1 6 C-0.61709538 4.00889599 -0.27395385 2.00899487 0 0 Z " fill="#F46C22" transform="translate(60,38)"/>
<path d="M0 0 C1.65 0 3.3 0 5 0 C11.38119534 16.85131195 11.38119534 16.85131195 11 26 C11.66 26 12.32 26 13 26 C13.41694996 27.59880813 13.80790856 29.20441261 14.1875 30.8125 C14.40792969 31.70582031 14.62835938 32.59914062 14.85546875 33.51953125 C15 36 15 36 13.80078125 37.82421875 C12 39 12 39 8 39 C8 37.68 8 36.36 8 35 C7.34 35 6.68 35 6 35 C5.87625 34.236875 5.7525 33.47375 5.625 32.6875 C3.33003185 28.89197575 0.77226729 28.69275776 -3.38671875 27.609375 C-4.97150699 27.23982797 -6.55721211 26.87414517 -8.14453125 26.515625 C-10 26.0625 -10 26.0625 -13 25 C-14.25 22.9375 -14.25 22.9375 -15 21 C-18.47325181 19.8422494 -21.36067448 19.93133348 -25 20 C-24.67 19.34 -24.34 18.68 -24 18 C-22.35 18 -20.7 18 -19 18 C-18.67 16.35 -18.34 14.7 -18 13 C-17.360625 12.896875 -16.72125 12.79375 -16.0625 12.6875 C-15.381875 12.460625 -14.70125 12.23375 -14 12 C-13.67 11.01 -13.34 10.02 -13 9 C-12.34 8.67 -11.68 8.34 -11 8 C-10.67 7.01 -10.34 6.02 -10 5 C-10.66 5 -11.32 5 -12 5 C-11.34 3.68 -10.68 2.36 -10 1 C-7.03 1.33 -4.06 1.66 -1 2 C-0.67 1.34 -0.34 0.68 0 0 Z " fill="#89B420" transform="translate(98,66)"/>
<path d="M0 0 C0.66 0 1.32 0 2 0 C2 0.66 2 1.32 2 2 C2.7425 2.20625 3.485 2.4125 4.25 2.625 C7.82371889 4.41185945 9.06522496 6.56039993 11 10 C11 10.66 11 11.32 11 12 C13.97 12.99 16.94 13.98 20 15 C20 15.99 20 16.98 20 18 C19.360625 18.103125 18.72125 18.20625 18.0625 18.3125 C17.381875 18.539375 16.70125 18.76625 16 19 C15.505 20.485 15.505 20.485 15 22 C14.01 22 13.02 22 12 22 C11.91492188 22.58910156 11.82984375 23.17820312 11.7421875 23.78515625 C10.79021111 26.6260542 9.45641143 27.5885968 7.125 29.4375 C4.01623006 32.03371289 1.71411115 34.25038187 0 38 C0 38.66 0 39.32 0 40 C-0.495 39.731875 -0.99 39.46375 -1.5 39.1875 C-4.34322156 37.83696976 -7.23943734 36.75997848 -10.1953125 35.68359375 C-12 35 -12 35 -14 34 C-14 33.01 -14 32.02 -14 31 C-14.99 30.67 -15.98 30.34 -17 30 C-16.29445932 26.33118845 -14.72264494 23.29549466 -13 20 C-12.67 20 -12.34 20 -12 20 C-12 22.64 -12 25.28 -12 28 C-11.01 27.67 -10.02 27.34 -9 27 C-8.26639432 24.99264169 -8.26639432 24.99264169 -7.9375 22.625 C-7.36829089 19.29648197 -6.94048384 17.91072575 -5 15 C-4.30899447 13.00827818 -3.64097297 11.00838196 -3 9 C-2.67 8.34 -2.34 7.68 -2 7 C-1.34 7 -0.68 7 0 7 C0 4.69 0 2.38 0 0 Z " fill="#8BBA19" transform="translate(52,66)"/>
<path d="M0 0 C0.38542969 0.65742187 0.77085938 1.31484375 1.16796875 1.9921875 C4.41422039 5.54991317 9.16611768 5.31328628 13.75 5.99609375 C17 7 17 7 18.9375 9.47265625 C20 12 20 12 20 14 C20.66 14 21.32 14 22 14 C22 15.32 22 16.64 22 18 C22.99 18.33 23.98 18.66 25 19 C26.20968643 22.08751361 26.19632959 25.2751873 26.25 28.5625 C26.27578125 29.51253906 26.3015625 30.46257812 26.328125 31.44140625 C26 34 26 34 24.609375 35.83984375 C23 37 23 37 21 37 C21 37.99 21 38.98 21 40 C21.56589844 40.23074219 22.13179687 40.46148437 22.71484375 40.69921875 C28.67457627 43.34915254 28.67457627 43.34915254 30.25 46.5 C29.91090403 49.89095968 28.39626187 50.60373813 26 53 C24.7761557 55.93722633 23.86325749 58.93935981 23 62 C22.34 62 21.68 62 21 62 C20.64949536 56.158256 20.83272665 52.1468192 24 47 C23.13375 46.814375 23.13375 46.814375 22.25 46.625 C19.82599488 45.95166524 18.07041295 45.44928906 16 44 C14.5625 41.1875 14.5625 41.1875 14 38 C15.25 35.125 15.25 35.125 17 33 C17.66 33 18.32 33 19 33 C19.33 31.35 19.66 29.7 20 28 C18.68 27.67 17.36 27.34 16 27 C16 24.03 16 21.06 16 18 C15.278125 17.773125 14.55625 17.54625 13.8125 17.3125 C10.46347777 15.74962296 8.52752454 13.66414749 6 11 C5.34 10.67 4.68 10.34 4 10 C4 9.34 4 8.68 4 8 C1.34771188 6.92474806 -1.28368454 5.90543849 -4 5 C-4.639375 4.29875 -5.27875 3.5975 -5.9375 2.875 C-6.618125 2.25625 -7.29875 1.6375 -8 1 C-10.21858253 1.13641377 -10.21858253 1.13641377 -12 2 C-12 1.01 -12 0.02 -12 -1 C-3.17647059 -2.47058824 -3.17647059 -2.47058824 0 0 Z " fill="#A3CA3B" transform="translate(84,87)"/>
<path d="M0 0 C1.21017546 2.42035092 2.41914128 4.84117385 3.62109375 7.265625 C4.46289567 8.93492059 5.32521428 10.5943213 6.22265625 12.234375 C8.44524102 16.34496189 9.4807744 19.19225601 9 24 C8.33613281 24.07476562 7.67226562 24.14953125 6.98828125 24.2265625 C0.68631964 25.09276819 0.68631964 25.09276819 -3.9375 29.125 C-4.618125 30.07375 -5.29875 31.0225 -6 32 C-6.99 32 -7.98 32 -9 32 C-9 32.99 -9 33.98 -9 35 C-9.66 35 -10.32 35 -11 35 C-11.042721 33.33388095 -11.04063832 31.66617115 -11 30 C-10.67 29.67 -10.34 29.34 -10 29 C-9.90035112 27.181878 -9.86919505 25.35991216 -9.8671875 23.5390625 C-9.86589844 22.42789063 -9.86460938 21.31671875 -9.86328125 20.171875 C-9.86714844 19.00140625 -9.87101562 17.8309375 -9.875 16.625 C-9.87113281 15.46226563 -9.86726563 14.29953125 -9.86328125 13.1015625 C-9.86457031 11.9878125 -9.86585937 10.8740625 -9.8671875 9.7265625 C-9.86831543 8.70127441 -9.86944336 7.67598633 -9.87060547 6.61962891 C-9.88776645 3.88830016 -9.88776645 3.88830016 -11 1 C-7.26513121 0.4254048 -3.78706732 0 0 0 Z " fill="#F2F02F" transform="translate(90,41)"/>
<path d="M0 0 C8.57142857 -0.14285714 8.57142857 -0.14285714 12 1 C12 1.66 12 2.32 12 3 C10.02 3 8.04 3 6 3 C6.48984375 3.38027344 6.9796875 3.76054688 7.484375 4.15234375 C11.5792001 9.14423105 8.9520382 19.88222943 8.4140625 26.0390625 C8 28 8 28 6 30 C3.9375 29.75 3.9375 29.75 2 29 C1.67 28.34 1.34 27.68 1 27 C0.21625 26.896875 -0.5675 26.79375 -1.375 26.6875 C-4 26 -4 26 -5.8125 23.4375 C-6.204375 22.633125 -6.59625 21.82875 -7 21 C-6.01 19.515 -6.01 19.515 -5 18 C-4.40861188 16.0881968 -4.40861188 16.0881968 -4 14.0625 C-3.31355647 11.09511812 -2.36159519 8.72319039 -1 6 C-0.61709538 4.00889599 -0.27395385 2.00899487 0 0 Z " fill="#FA4912" transform="translate(60,38)"/>
<path d="M0 0 C1.98 0 3.96 0 6 0 C7.31626692 3.61973402 8 6.09567131 8 10 C8.66 10 9.32 10 10 10 C10.67756882 11.55780332 11.34159457 13.12150096 12 14.6875 C12.37125 15.55761719 12.7425 16.42773438 13.125 17.32421875 C14.01870488 20.0572002 14.16449676 22.14700934 14 25 C16.64 25.33 19.28 25.66 22 26 C22 26.66 22 27.32 22 28 C21.34 28 20.68 28 20 28 C20 28.99 20 29.98 20 31 C20.66 31 21.32 31 22 31 C22.28875 31.94875 22.5775 32.8975 22.875 33.875 C23.76825109 37.05211578 23.76825109 37.05211578 26 39 C27.59280546 43.91606623 28.26479098 48.83657587 28 54 C26.68 54 25.36 54 24 54 C23.67 54.99 23.34 55.98 23 57 C19.62537285 56.45276317 17.91765 55.9451 15 54 C17.31 54 19.62 54 22 54 C22.33 53.34 22.66 52.68 23 52 C23.66 52.33 24.32 52.66 25 53 C23.73763728 47.10897399 21.8515381 42.28790973 19 37 C16 31.21428571 16 31.21428571 16 29 C15.39671875 29.19078125 14.7934375 29.3815625 14.171875 29.578125 C11.74915687 30.2502339 9.50809742 30.79710744 7 31 C4.4375 29.1875 4.4375 29.1875 3 27 C3 26.67 3 26.34 3 26 C5.64 25.34 8.28 24.68 11 24 C9.59597216 19.92023325 7.61791744 17.04896724 4.9375 13.6875 C1.37637524 8.93504055 0 5.90997134 0 0 Z " fill="#ADD126" transform="translate(74,12)"/>
<path d="M0 0 C2.5625 0.3125 2.5625 0.3125 3.8984375 1.6953125 C5.99711262 3.73487002 8.02134097 4.47232322 10.75 5.5 C11.65105469 5.84417969 12.55210938 6.18835938 13.48046875 6.54296875 C14.16753906 6.79691406 14.85460937 7.05085938 15.5625 7.3125 C15.5625 7.9725 15.5625 8.6325 15.5625 9.3125 C11.43474786 8.97554064 8.49799725 8.47227416 4.9375 6.3125 C1.93409573 4.53270488 -0.02973133 3.72556287 -3.4375 3.3125 C-3.1075 4.6325 -2.7775 5.9525 -2.4375 7.3125 C3.0075 8.7975 3.0075 8.7975 8.5625 10.3125 C7.5725 10.8075 7.5725 10.8075 6.5625 11.3125 C6.5625 12.6325 6.5625 13.9525 6.5625 15.3125 C7.14 15.56 7.7175 15.8075 8.3125 16.0625 C12.641971 18.46776167 15.4197257 22.26551406 18.25 26.25 C18.85199219 27.08402344 19.45398438 27.91804688 20.07421875 28.77734375 C23.72178343 34.99064946 22.66663376 41.93926431 20.96484375 48.6796875 C19.33321855 53.83312667 17.08070178 58.53660007 14.5625 63.3125 C13.9025 63.3125 13.2425 63.3125 12.5625 63.3125 C12.129375 64.7665625 12.129375 64.7665625 11.6875 66.25 C10.5625 69.3125 10.5625 69.3125 8.5625 70.3125 C9.19157121 64.77667331 9.19157121 64.77667331 10.9765625 62.54296875 C13.04932039 59.62783388 13.71534244 56.82580621 14.625 53.375 C16.40209349 46.70197827 16.40209349 46.70197827 17.67578125 43.609375 C18.88762946 40.47031445 18.69307497 37.64216185 18.5625 34.3125 C17.9025 34.3125 17.2425 34.3125 16.5625 34.3125 C15.22119239 32.04604942 13.88933766 29.77489903 12.5625 27.5 C12.1809375 26.85740234 11.799375 26.21480469 11.40625 25.55273438 C8.5625 20.65234375 8.5625 20.65234375 8.5625 17.3125 C7.923125 17.044375 7.28375 16.77625 6.625 16.5 C4.5625 15.3125 4.5625 15.3125 3.5625 12.3125 C-0.0675 11.9825 -3.6975 11.6525 -7.4375 11.3125 C-7.1075 9.9925 -6.7775 8.6725 -6.4375 7.3125 C-5.7775 7.3125 -5.1175 7.3125 -4.4375 7.3125 C-4.499375 6.136875 -4.499375 6.136875 -4.5625 4.9375 C-4.39323495 1.38293403 -3.53340594 0.45300076 0 0 Z " fill="#A3BB5C" transform="translate(26.4375,22.6875)"/>
<path d="M0 0 C6.60231209 -0.35867691 10.91132614 0.22271017 17 3 C18.66155264 3.28199396 20.32929994 3.52855228 22 3.75 C29.62595285 4.99118957 36.16392534 8.55897139 43 12 C43.90234375 12.44472656 44.8046875 12.88945312 45.734375 13.34765625 C47.49592722 14.2190624 49.24938325 15.10682819 51 16 C51 16.66 51 17.32 51 18 C51.72703125 18.22945312 52.4540625 18.45890625 53.203125 18.6953125 C56.55195985 20.25747848 58.30897662 22.11451382 60.75 24.875 C61.52859375 25.73867188 62.3071875 26.60234375 63.109375 27.4921875 C64.87618591 29.83576726 65.7345578 31.11633242 66 34 C65.67 34.99 65.34 35.98 65 37 C64.34 37 63.68 37 63 37 C63.33 35.68 63.66 34.36 64 33 C62.68 33.66 61.36 34.32 60 35 C59.34 33.35 58.68 31.7 58 30 C57.34 30 56.68 30 56 30 C54.4921875 28.5390625 54.4921875 28.5390625 52.875 26.625 C52.33617187 25.99851562 51.79734375 25.37203125 51.2421875 24.7265625 C50 23 50 23 50 21 C49.19369141 20.62488281 49.19369141 20.62488281 48.37109375 20.2421875 C45.46795653 18.72126883 42.80399067 16.92103221 40.0625 15.125 C30.94132919 9.37556893 21.34869331 7.01451348 10.74609375 5.4375 C7.0885161 4.85478493 3.57448081 3.96236022 0 3 C0 2.01 0 1.02 0 0 Z " fill="#A7C38E" transform="translate(75,2)"/>
<path d="M0 0 C0.66 0 1.32 0 2 0 C1.67 1.32 1.34 2.64 1 4 C1.66 4 2.32 4 3 4 C3 3.01 3 2.02 3 1 C3.66 1 4.32 1 5 1 C7.1484375 6.6640625 7.1484375 6.6640625 8 9 C8.35449219 9.88558594 8.70898438 10.77117188 9.07421875 11.68359375 C10.27593848 15.98848849 10.40619078 19.98811126 10.4375 24.4375 C10.48680664 25.66823242 10.48680664 25.66823242 10.53710938 26.92382812 C10.59223086 33.20266607 9.06450919 36.22917799 5 41 C2 40 2 40 0 39 C0.14037521 37.18706911 0.28744889 35.3746557 0.4375 33.5625 C0.55931641 32.04849609 0.55931641 32.04849609 0.68359375 30.50390625 C1 28 1 28 2 27 C2.09873816 25.00200428 2.12971799 23.00042842 2.125 21 C2.12757813 19.906875 2.13015625 18.81375 2.1328125 17.6875 C2.30547755 15.08169646 2.30547755 15.08169646 1 14 C0.66666667 11.66666667 0.33333333 9.33333333 0 7 C-0.33 6.67 -0.66 6.34 -1 6 C-1.125 3.5 -1.125 3.5 -1 1 C-0.67 0.67 -0.34 0.34 0 0 Z " fill="#99CB7E" transform="translate(137,35)"/>
<path d="M0 0 C0 0.99 0 1.98 0 3 C-0.66 3 -1.32 3 -2 3 C-2.33 3.99 -2.66 4.98 -3 6 C-5.00390625 6.80859375 -5.00390625 6.80859375 -7.5625 7.4375 C-11.10590898 8.3932545 -14.24395659 9.49077279 -17.5 11.1875 C-21 13 -21 13 -23 13 C-23 13.66 -23 14.32 -23 15 C-23.66 15.33 -24.32 15.66 -25 16 C-24.80664062 16.556875 -24.61328125 17.11375 -24.4140625 17.6875 C-16.50593243 40.863802 -16.50593243 40.863802 -19.984375 49.421875 C-20.31953125 49.94265625 -20.6546875 50.4634375 -21 51 C-21 49.02 -21 47.04 -21 45 C-21.66 45 -22.32 45 -23 45 C-23.23783203 43.58460937 -23.23783203 43.58460937 -23.48046875 42.140625 C-24.8793595 34.44286156 -26.62919175 27.71019791 -30.01171875 20.5859375 C-31.05343721 17.86017615 -31.19304503 15.89045805 -31 13 C-30.34 13 -29.68 13 -29 13 C-28.67 12.34 -28.34 11.68 -28 11 C-25.36 11 -22.72 11 -20 11 C-19.896875 10.21625 -19.79375 9.4325 -19.6875 8.625 C-19 6 -19 6 -16 4 C-14.68 4 -13.36 4 -12 4 C-12 3.01 -12 2.02 -12 1 C-3.96428571 -1.27678571 -3.96428571 -1.27678571 0 0 Z " fill="#A5C733" transform="translate(132,47)"/>
<path d="M0 0 C0.66 0 1.32 0 2 0 C2.18175781 0.90363281 2.36351562 1.80726562 2.55078125 2.73828125 C2.80214844 3.91777344 3.05351562 5.09726563 3.3125 6.3125 C3.55613281 7.48425781 3.79976562 8.65601562 4.05078125 9.86328125 C4.98884717 12.96314519 5.57098041 14.01147619 8 16 C8.8971875 17.2065625 8.8971875 17.2065625 9.8125 18.4375 C12.24997043 21.2928225 14.81358851 23.04470204 18 25 C17.67 28.96 17.34 32.92 17 37 C12.82385732 36.83295429 9.87504468 36.34991422 6.75 33.5625 C-1.04881054 24.64066074 0.29349148 11.13970415 0 0 Z " fill="#91C379" transform="translate(11,63)"/>
<path d="M0 0 C0.495 4.455 0.495 4.455 1 9 C0.24074219 9.06058594 -0.51851562 9.12117188 -1.30078125 9.18359375 C-2.79158203 9.30927734 -2.79158203 9.30927734 -4.3125 9.4375 C-5.29863281 9.51871094 -6.28476563 9.59992188 -7.30078125 9.68359375 C-10.09375599 9.91812559 -10.09375599 9.91812559 -13 11 C-20.06515051 11.32861165 -27.01522343 11.09565123 -34 10 C-34 8.68 -34 7.36 -34 6 C-29.86581409 4.05543072 -26.230003 3.62971979 -21.6875 3.375 C-20.43324219 3.30023438 -19.17898437 3.22546875 -17.88671875 3.1484375 C-16.93410156 3.09945312 -15.98148438 3.05046875 -15 3 C-19.29 2.67 -23.58 2.34 -28 2 C-28 1.67 -28 1.34 -28 1 C-24.27091231 0.83153467 -20.54171841 0.66554419 -16.8125 0.5 C-15.75740234 0.45230469 -14.70230469 0.40460938 -13.61523438 0.35546875 C-12.08286133 0.28779297 -12.08286133 0.28779297 -10.51953125 0.21875 C-9.58214111 0.17685547 -8.64475098 0.13496094 -7.67895508 0.09179688 C-5.11673177 0.00399992 -2.56347632 -0.01626313 0 0 Z " fill="#A0D087" transform="translate(100,106)"/>
<path d="M0 0 C6.15234375 -0.09765625 6.15234375 -0.09765625 8 0 C9 1 9 1 9.09765625 2.84765625 C9.04882812 5.92382812 9.04882812 5.92382812 9 9 C9.66 9.33 10.32 9.66 11 10 C10.01 10.495 10.01 10.495 9 11 C8.34 10.67 7.68 10.34 7 10 C7.11859375 10.61488281 7.2371875 11.22976562 7.359375 11.86328125 C7.48828125 12.67152344 7.6171875 13.47976562 7.75 14.3125 C7.88921875 15.11300781 8.0284375 15.91351563 8.171875 16.73828125 C8.11515625 17.48464844 8.0584375 18.23101562 8 19 C7.3503125 19.433125 6.700625 19.86625 6.03125 20.3125 C3.58687916 21.94541055 3.58687916 21.94541055 3.609375 25.57421875 C3.6358801 26.94585748 3.6834691 28.31721938 3.75 29.6875 C3.76804687 30.38939453 3.78609375 31.09128906 3.8046875 31.81445312 C3.85173787 33.54355436 3.92348127 35.27195205 4 37 C1 36 1 36 -0.16796875 33.890625 C-0.50441406 33.01921875 -0.84085938 32.1478125 -1.1875 31.25 C-1.53167969 30.38890625 -1.87585938 29.5278125 -2.23046875 28.640625 C-3.02557224 25.91224957 -3.24288916 23.82418181 -3 21 C-1.625 18.6875 -1.625 18.6875 0 17 C0.66 17 1.32 17 2 17 C1.484375 16.236875 0.96875 15.47375 0.4375 14.6875 C-1.55087979 9.58687359 -0.7866463 5.32644847 0 0 Z " fill="#9EAE46" transform="translate(31,108)"/>
<path d="M0 0 C4.23407216 0.84681443 8.51568454 1.17036344 12.8125 1.5625 C9.72440305 3.32712683 8.57937864 3.5625 4.8125 3.5625 C4.8125 4.5525 4.8125 5.5425 4.8125 6.5625 C3.678125 6.975 2.54375 7.3875 1.375 7.8125 C-2.28293384 9.12935398 -2.28293384 9.12935398 -3.125 11.75 C-3.145625 12.348125 -3.16625 12.94625 -3.1875 13.5625 C-5.8275 13.5625 -8.4675 13.5625 -11.1875 13.5625 C-11.5175 14.5525 -11.8475 15.5425 -12.1875 16.5625 C-15.16281139 13.18146433 -15.99632284 9.85073777 -17.1875 5.5625 C-17.8475 4.9025 -18.5075 4.2425 -19.1875 3.5625 C-19.1875 2.5725 -19.1875 1.5825 -19.1875 0.5625 C-17.29190036 0.39319605 -15.39600769 0.22717136 -13.5 0.0625 C-12.44425781 -0.0303125 -11.38851562 -0.123125 -10.30078125 -0.21875 C-6.79212913 -0.46528014 -3.45909031 -0.69181806 0 0 Z " fill="#8DBB1A" transform="translate(115.1875,44.4375)"/>
<path d="M0 0 C0.33 0 0.66 0 1 0 C1.0501123 0.57967529 1.10022461 1.15935059 1.15185547 1.7565918 C1.38497534 4.40099577 1.62987578 7.04418287 1.875 9.6875 C1.95363281 10.59951172 2.03226563 11.51152344 2.11328125 12.45117188 C2.54332852 16.99974874 3.06547687 20.80853322 5 25 C5.125 27.8125 5.125 27.8125 5 30 C1.4370653 26.15463755 0.37753766 23.36468573 -0.25 18.1875 C-0.39953125 17.02605469 -0.5490625 15.86460938 -0.703125 14.66796875 C-0.85007812 13.34732422 -0.85007812 13.34732422 -1 12 C-1.66 12 -2.32 12 -3 12 C-2.84402344 12.67546875 -2.68804688 13.3509375 -2.52734375 14.046875 C-1.91807531 17.45877829 -1.73698638 20.78875999 -1.5625 24.25 C-1.20975248 30.05895516 -0.47908466 35.37947828 1 41 C0.34 41 -0.32 41 -1 41 C-3.77969442 36.94627896 -6 32.970558 -6 28 C-6.66 28 -7.32 28 -8 28 C-10.10048591 24.59882859 -10.14947274 22.24940894 -9.75 18.3125 C-9.66234375 17.33925781 -9.5746875 16.36601563 -9.484375 15.36328125 C-9.32453125 14.58339844 -9.1646875 13.80351563 -9 13 C-8.34 12.67 -7.68 12.34 -7 12 C-6.60843772 9.67493341 -6.60843772 9.67493341 -6.5 7 C-6.34375 4.25 -6.34375 4.25 -6 2 C-5.34 1.67 -4.68 1.34 -4 1 C-4 2.98 -4 4.96 -4 7 C-3.34 7 -2.68 7 -2 7 C-1.34 4.69 -0.68 2.38 0 0 Z " fill="#91BF7B" transform="translate(14,51)"/>
<path d="M0 0 C1.41858462 6.00837308 1.18257367 12.54437134 1.1875 18.6875 C1.19974609 19.50283203 1.21199219 20.31816406 1.22460938 21.15820312 C1.23583283 25.78600823 1.02252388 29.73321373 -1 34 C-2.485 34.495 -2.485 34.495 -4 35 C-4.66 34.67 -5.32 34.34 -6 34 C-6 22.78 -6 11.56 -6 0 C-2 -1 -2 -1 0 0 Z " fill="#F49723" transform="translate(80,42)"/>
<path d="M0 0 C14.20081967 10.40163934 14.20081967 10.40163934 16 14 C16.556875 13.855625 17.11375 13.71125 17.6875 13.5625 C20.11384195 12.97230872 22.54906345 12.476571 25 12 C25 11.01 25 10.02 25 9 C25.99 8.67 26.98 8.34 28 8 C28.66 7.34 29.32 6.68 30 6 C30.66 6.33 31.32 6.66 32 7 C31.43416161 10.28186266 30.58727596 11.89184922 28 14 C27.29875 14.309375 26.5975 14.61875 25.875 14.9375 C25.25625 15.288125 24.6375 15.63875 24 16 C23.87625 16.66 23.7525 17.32 23.625 18 C23.315625 18.99 23.315625 18.99 23 20 C21.01276732 20.70381157 19.01222047 21.3711811 17 22 C16.67 22.99 16.34 23.98 16 25 C14.3523962 25.71247732 12.68236471 26.37400383 11 27 C10.29875 27.556875 9.5975 28.11375 8.875 28.6875 C8.25625 29.120625 7.6375 29.55375 7 30 C6.01 29.67 5.02 29.34 4 29 C4.99 28.34 5.98 27.68 7 27 C7.33 26.01 7.66 25.02 8 24 C8.99 23.67 9.98 23.34 11 23 C11.515625 22.484375 12.03125 21.96875 12.5625 21.4375 C13.036875 20.963125 13.51125 20.48875 14 20 C14.66 20 15.32 20 16 20 C16 19.01 16 18.02 16 17 C15.39671875 16.86464844 14.7934375 16.72929688 14.171875 16.58984375 C7.66499796 14.83718494 7.66499796 14.83718494 5.6875 12.34765625 C4.78479461 10.56857439 3.89218936 8.78437872 3 7 C0.41796279 5.06305417 0.41796279 5.06305417 -2 4 C-1.34 2.68 -0.68 1.36 0 0 Z " fill="#B0D427" transform="translate(56,64)"/>
<path d="M0 0 C0.33 0.66 0.66 1.32 1 2 C2.32407669 2.68486725 3.65909241 3.34870203 5 4 C7.25 5.4375 7.25 5.4375 9 7 C9 7.99 9 8.98 9 10 C11.97 10.99 14.94 11.98 18 13 C16.02 13.99 16.02 13.99 14 15 C13.443125 15.721875 12.88625 16.44375 12.3125 17.1875 C9.49877109 19.39285509 8.69684813 19.14377138 5.25 18.75 C3.82979799 18.52093516 2.41154099 18.27748242 1 18 C1 16.68 1 15.36 1 14 C-1.475 13.01 -1.475 13.01 -4 12 C-4 10 -4 10 -2 8 C-1.32707499 6.03309626 -1.32707499 6.03309626 -0.875 3.875 C-0.58625 2.59625 -0.2975 1.3175 0 0 Z " fill="#A5D15C" transform="translate(29,90)"/>
<path d="M0 0 C2.16874252 0.50603992 3.99967627 0.99983813 6 2 C6 2.66 6 3.32 6 4 C5.34 4 4.68 4 4 4 C4 4.99 4 5.98 4 7 C4.56589844 7.23074219 5.13179687 7.46148437 5.71484375 7.69921875 C11.67457627 10.34915254 11.67457627 10.34915254 13.25 13.5 C12.91090403 16.89095968 11.39626187 17.60373813 9 20 C7.7761557 22.93722633 6.86325749 25.93935981 6 29 C5.34 29 4.68 29 4 29 C3.64949536 23.158256 3.83272665 19.1468192 7 14 C6.4225 13.87625 5.845 13.7525 5.25 13.625 C2.82599488 12.95166524 1.07041295 12.44928906 -1 11 C-2.4375 8.1875 -2.4375 8.1875 -3 5 C-1.625 2.125 -1.625 2.125 0 0 Z " fill="#A4B83E" transform="translate(101,120)"/>
<path d="M0 0 C6.61056375 -0.10222521 13.05711429 0.01679783 19.625 0.78515625 C22.00507399 1.000459 24.29989638 0.99799671 26.6875 0.9375 C30.81777112 0.87135687 34.09895013 1.67198302 38 3 C37.67 4.65 37.34 6.3 37 8 C36.34 7.67 35.68 7.34 35 7 C32.5585457 6.79197076 30.13321995 6.62589979 27.6875 6.5 C20.51693986 6.10670777 20.51693986 6.10670777 17.4453125 5.47265625 C14.32562353 4.86964928 11.36187308 4.90543563 8.1875 4.9375 C7.02605469 4.94652344 5.86460938 4.95554687 4.66796875 4.96484375 C3.78753906 4.97644531 2.90710938 4.98804688 2 5 C2 4.34 2 3.68 2 3 C1.34 3 0.68 3 0 3 C0 2.01 0 1.02 0 0 Z " fill="#84AC2C" transform="translate(94,40)"/>
<path d="M0 0 C0.433125 0.66 0.86625 1.32 1.3125 2 C2.96815319 4.34870995 2.96815319 4.34870995 6.5 4.9375 C10 6 10 6 11.6875 8.5 C12.120625 9.325 12.55375 10.15 13 11 C13.99386719 11.38671875 13.99386719 11.38671875 15.0078125 11.78125 C17 13 17 13 17.79296875 15.75 C17.98826172 17.35875 17.98826172 17.35875 18.1875 19 C18.62334592 23.14253856 18.62334592 23.14253856 20 27 C18.68 27 17.36 27 16 27 C16 24.03 16 21.06 16 18 C15.278125 17.773125 14.55625 17.54625 13.8125 17.3125 C10.46347777 15.74962296 8.52752454 13.66414749 6 11 C5.34 10.67 4.68 10.34 4 10 C4 9.34 4 8.68 4 8 C1.34771188 6.92474806 -1.28368454 5.90543849 -4 5 C-4.639375 4.29875 -5.27875 3.5975 -5.9375 2.875 C-6.618125 2.25625 -7.29875 1.6375 -8 1 C-10.21858253 1.13641377 -10.21858253 1.13641377 -12 2 C-12 1.01 -12 0.02 -12 -1 C-3.17647059 -2.47058824 -3.17647059 -2.47058824 0 0 Z " fill="#B4D443" transform="translate(84,87)"/>
<path d="M0 0 C2.48088027 2.83529174 3.17351494 5.58441763 3.875 9.1875 C4.23835668 10.79434399 4.6141072 12.39841877 5 14 C5.18691406 14.89074219 5.37382813 15.78148438 5.56640625 16.69921875 C6.63308888 19.97579993 7.44654308 21.64363666 10 24 C15.36476708 25.88659873 21.09534437 26.20817418 26.72167969 26.71484375 C29.95952902 27.12009536 32.89927429 27.99706985 36 29 C34 31 34 31 32.02880859 31.04345703 C31.24328613 30.94919434 30.45776367 30.85493164 29.6484375 30.7578125 C28.79765625 30.66113281 27.946875 30.56445312 27.0703125 30.46484375 C26.18085937 30.35269531 25.29140625 30.24054687 24.375 30.125 C23.4778125 30.02058594 22.580625 29.91617188 21.65625 29.80859375 C19.4361557 29.54879548 17.21776466 29.27888059 15 29 C15 28.34 15 27.68 15 27 C14.05125 27.020625 13.1025 27.04125 12.125 27.0625 C9 27 9 27 7 26 C4.90097173 21.2294812 3.6613804 16.15876713 3 11 C2.34 11 1.68 11 1 11 C0.34 7.7 -0.32 4.4 -1 1 C-2.98 1.33 -4.96 1.66 -7 2 C-7.33 3.65 -7.66 5.3 -8 7 C-8.66 7 -9.32 7 -10 7 C-10.268125 7.639375 -10.53625 8.27875 -10.8125 8.9375 C-12 11 -12 11 -15 12 C-13.48268615 7.44805844 -11.06964403 3.65996019 -8 0 C-5.00422405 -1.49788797 -3.16806651 -0.90516186 0 0 Z " fill="#A2B855" transform="translate(81,11)"/>
<path d="M0 0 C2.4375 0.375 2.4375 0.375 5 1 C6.27861615 3.55723229 6.11336609 5.36737102 6.09765625 8.2265625 C6.09282227 9.7734375 6.09282227 9.7734375 6.08789062 11.3515625 C6.07951172 12.43179688 6.07113281 13.51203125 6.0625 14.625 C6.05798828 15.71296875 6.05347656 16.8009375 6.04882812 17.921875 C6.03701776 20.61463789 6.02054778 23.30729188 6 26 C6.66 26.33 7.32 26.66 8 27 C6.6875 29 6.6875 29 5 31 C4.01 31 3.02 31 2 31 C2 31.99 2 32.98 2 34 C1.34 34 0.68 34 0 34 C-0.042721 32.33388095 -0.04063832 30.66617115 0 29 C0.33 28.67 0.66 28.34 1 28 C1.09964888 26.181878 1.13080495 24.35991216 1.1328125 22.5390625 C1.13410156 21.42789063 1.13539062 20.31671875 1.13671875 19.171875 C1.13285156 18.00140625 1.12898438 16.8309375 1.125 15.625 C1.12886719 14.46226563 1.13273437 13.29953125 1.13671875 12.1015625 C1.13542969 10.9878125 1.13414063 9.8740625 1.1328125 8.7265625 C1.13168457 7.70127441 1.13055664 6.67598633 1.12939453 5.61962891 C1.11223355 2.88830016 1.11223355 2.88830016 0 0 Z " fill="#EEBD2B" transform="translate(79,42)"/>
<path d="M0 0 C0.99 0 1.98 0 3 0 C3 0.99 3 1.98 3 3 C4.19625 2.814375 5.3925 2.62875 6.625 2.4375 C10.28283707 1.9688803 13.37862166 2.18518987 17 3 C16.01 3.495 16.01 3.495 15 4 C15 5.32 15 6.64 15 8 C14.01 8 13.02 8 12 8 C12 8.99 12 9.98 12 11 C13.32 11.33 14.64 11.66 16 12 C15.979375 12.721875 15.95875 13.44375 15.9375 14.1875 C15.99820559 16.91925138 16.39258535 19.34256091 17 22 C13.17750524 19.52662104 11.24103785 16.89722602 9.0625 13 C7.22809992 9.75049128 5.86144456 7.52879092 2.625 5.625 C1.75875 5.08875 0.8925 4.5525 0 4 C0 2.68 0 1.36 0 0 Z " fill="#8AAF1E" transform="translate(33,34)"/>
<path d="M0 0 C1.828125 0.51953125 1.828125 0.51953125 4 2 C5.1207341 4.60423214 5.97485678 6.98424894 6.75 9.6875 C6.97042969 10.38294922 7.19085938 11.07839844 7.41796875 11.79492188 C8.78622972 16.34587684 9.22392718 20.25398786 9 25 C9.66 25 10.32 25 11 25 C11.38897161 26.62171239 11.76078298 28.24754925 12.125 29.875 C12.33382812 30.77992187 12.54265625 31.68484375 12.7578125 32.6171875 C12.83773437 33.40351562 12.91765625 34.18984375 13 35 C12.34 35.66 11.68 36.32 11 37 C10.01 37 9.02 37 8 37 C8.0309375 35.5459375 8.0309375 35.5459375 8.0625 34.0625 C8.35618499 31.12534105 8.35618499 31.12534105 7 30 C6.62107087 26.82224779 6.27722912 23.64832313 6.01367188 20.45898438 C5.80491752 18.18593095 5.80491752 18.18593095 5 15 C3.04964612 13.73541483 3.04964612 13.73541483 1 13 C-0.17197158 10.12836283 -0.10769448 7.32322479 -0.0625 4.25 C-0.05347656 3.45078125 -0.04445313 2.6515625 -0.03515625 1.828125 C-0.02355469 1.22484375 -0.01195313 0.6215625 0 0 Z " fill="#132400" transform="translate(100,67)"/>
<path d="M0 0 C1.125 3.75 1.125 3.75 0 6 C-0.66 6 -1.32 6 -2 6 C-1.67 7.65 -1.34 9.3 -1 11 C2.96 11.33 6.92 11.66 11 12 C11 12.66 11 13.32 11 14 C12.98 14 14.96 14 17 14 C14.83200333 15.93375335 13.6198443 16.97092858 10.66796875 17.109375 C9.84941406 16.99078125 9.03085938 16.8721875 8.1875 16.75 C7.31738281 16.63269531 6.44726562 16.51539062 5.55078125 16.39453125 C4.70902344 16.26433594 3.86726563 16.13414063 3 16 C2.27167969 15.90074219 1.54335937 15.80148438 0.79296875 15.69921875 C-0.80677369 15.48092396 -2.40380807 15.24289877 -4 15 C-4 14.01 -4 13.02 -4 12 C-8.95 11.67 -13.9 11.34 -19 11 C-18.34 10.67 -17.68 10.34 -17 10 C-16.67 9.34 -16.34 8.68 -16 8 C-12.7 8.33 -9.4 8.66 -6 9 C-5.38125 8.071875 -4.7625 7.14375 -4.125 6.1875 C-2.75 4.125 -1.375 2.0625 0 0 Z " fill="#9DBE23" transform="translate(65,23)"/>
<path d="M0 0 C0.66 0 1.32 0 2 0 C2.18175781 0.90363281 2.36351562 1.80726562 2.55078125 2.73828125 C2.80214844 3.91777344 3.05351562 5.09726563 3.3125 6.3125 C3.55613281 7.48425781 3.79976562 8.65601562 4.05078125 9.86328125 C4.98950196 12.96530894 5.56427556 14.01510374 8 16 C10 18.5 10 18.5 12 21 C12.99 21.99 13.98 22.98 15 24 C11.37 24.66 7.74 25.32 4 26 C0.64094214 20.57867874 0.46700418 15.81399609 0.3125 9.625 C0.27833984 8.69816406 0.24417969 7.77132812 0.20898438 6.81640625 C0.12700448 4.54439188 0.05769506 2.27273896 0 0 Z " fill="#A6D091" transform="translate(11,63)"/>
<path d="M0 0 C6.60231209 -0.35867691 10.91132614 0.22271017 17 3 C18.68148337 3.30597484 20.37023828 3.57321518 22.0625 3.8125 C29.22748842 4.96009564 35.45689054 7.96246889 42 11 C42 11.33 42 11.66 42 12 C37.36590279 12.33702525 34.21867118 12.32240824 30.0625 10.1875 C24.37484396 7.38330722 18.38581986 6.67866582 12.18359375 5.7109375 C8.0474437 5.05483839 4.04893142 4.06574798 0 3 C0 2.01 0 1.02 0 0 Z " fill="#A6B695" transform="translate(75,2)"/>
<path d="M0 0 C4.87998804 0.4784302 7.88284798 1.42677999 12 4 C14.31691454 4.72166191 16.64848923 5.40059529 19 6 C19 5.34 19 4.68 19 4 C21.97 4.495 21.97 4.495 25 5 C25 5.66 25 6.32 25 7 C26.9600281 8.63676257 26.9600281 8.63676257 29 10 C28.34773438 9.98839844 27.69546875 9.97679687 27.0234375 9.96484375 C22.2238086 9.91529006 17.72215315 10.00586249 13 11 C12.67 10.01 12.34 9.02 12 8 C9.99939943 7.08478813 9.99939943 7.08478813 7.625 6.5 C4.2633129 5.58018985 2.19616148 4.77708161 0 2 C0 1.34 0 0.68 0 0 Z " fill="#ADCD39" transform="translate(23,26)"/>
<path d="M0 0 C1.32 0 2.64 0 4 0 C4 6.93 4 13.86 4 21 C3.67 20.34 3.34 19.68 3 19 C0.69 19 -1.62 19 -4 19 C-3.505 14.545 -3.505 14.545 -3 10 C-2.01 9.67 -1.02 9.34 0 9 C-0.185625 8.071875 -0.37125 7.14375 -0.5625 6.1875 C-1 3 -1 3 0 0 Z " fill="#F5301A" transform="translate(60,45)"/>
<path d="M0 0 C5.19209404 -0.21192221 9.126739 0.4087311 14 2 C13.03728324 5.93193791 11.98347292 9.8396136 10.9375 13.75 C10.75123047 14.44738281 10.56496094 15.14476562 10.37304688 15.86328125 C9.91564761 17.57559646 9.45786215 19.2878085 9 21 C5.875 14.75 5.875 14.75 7 11 C5.68 10.67 4.36 10.34 3 10 C3 9.01 3 8.02 3 7 C3.99 7 4.98 7 6 7 C6 5.68 6 4.36 6 3 C4.02 2.34 2.04 1.68 0 1 C0 0.67 0 0.34 0 0 Z " fill="#8EBA19" transform="translate(42,35)"/>
<path d="M0 0 C8.57142857 -0.14285714 8.57142857 -0.14285714 12 1 C12 1.66 12 2.32 12 3 C10.02 3 8.04 3 6 3 C6 3.99 6 4.98 6 6 C4.125 7.0625 4.125 7.0625 2 8 C1.34 7.67 0.68 7.34 0 7 C0 9.97 0 12.94 0 16 C-0.66 16.33 -1.32 16.66 -2 17 C-2.40729228 19.32156597 -2.74438677 21.6568787 -3 24 C-4.32 23.34 -5.64 22.68 -7 22 C-6.71125 21.505 -6.4225 21.01 -6.125 20.5 C-4.85072053 17.66826785 -4.21007736 14.8965506 -3.50390625 11.8828125 C-2.93336729 9.75103128 -1.98439127 7.96878254 -1 6 C-0.61709538 4.00889599 -0.27395385 2.00899487 0 0 Z " fill="#C0400C" transform="translate(60,38)"/>
<path d="M0 0 C5.30185016 4.42808156 5.65289747 12.28244113 6.48046875 18.76171875 C7.40816155 29.20644822 7.40816155 29.20644822 5 33 C5 31.02 5 29.04 5 27 C4.34 27 3.68 27 3 27 C2.79503906 25.96359375 2.59007813 24.9271875 2.37890625 23.859375 C2.10682231 22.48957311 1.83468404 21.11978201 1.5625 19.75 C1.42779297 19.06808594 1.29308594 18.38617188 1.15429688 17.68359375 C0.61714739 14.98474512 0.07982934 12.30135574 -0.625 9.640625 C-1.11350641 7.50340946 -0.58837626 6.09200448 0 4 C0 2.68 0 1.36 0 0 Z " fill="#A5BC49" transform="translate(106,65)"/>
<path d="M0 0 C1.65 0 3.3 0 5 0 C5.66 1.65 6.32 3.3 7 5 C6.34 5 5.68 5 5 5 C5 9.95 5 14.9 5 20 C3.68 20.33 2.36 20.66 1 21 C1 20.34 1 19.68 1 19 C0.34 18.67 -0.32 18.34 -1 18 C-0.01 17.67 0.98 17.34 2 17 C1.484375 16.236875 0.96875 15.47375 0.4375 14.6875 C-1.55087979 9.58687359 -0.7866463 5.32644847 0 0 Z " fill="#A7BA3A" transform="translate(31,108)"/>
<path d="M0 0 C0.66 0 1.32 0 2 0 C3.84953379 10.67381547 0.93420442 17.6420261 -4 27 C-4.66 27 -5.32 27 -6 27 C-6.28875 27.969375 -6.5775 28.93875 -6.875 29.9375 C-8 33 -8 33 -10 34 C-9.37092879 28.46417331 -9.37092879 28.46417331 -7.5859375 26.23046875 C-5.51317961 23.31533388 -4.84715756 20.51330621 -3.9375 17.0625 C-2.16749276 10.41608729 -2.16749276 10.41608729 -0.88671875 7.234375 C0.12449832 4.68628617 0.15524949 2.716866 0 0 Z " fill="#AEC154" transform="translate(45,59)"/>
<path d="M0 0 C3.63 0.33 7.26 0.66 11 1 C10.5546501 6.8786187 9.84000665 10.77438776 7 16 C6.67 17.258125 6.34 18.51625 6 19.8125 C5.67 20.864375 5.34 21.91625 5 23 C4.01 23.33 3.02 23.66 2 24 C2.875 18.125 2.875 18.125 4 17 C4.397493 14.65276034 4.74368723 12.29671452 5.0625 9.9375 C5.23910156 8.64714844 5.41570313 7.35679688 5.59765625 6.02734375 C5.73042969 5.02832031 5.86320312 4.02929688 6 3 C4.02 2.34 2.04 1.68 0 1 C0 0.67 0 0.34 0 0 Z " fill="#AFD328" transform="translate(50,34)"/>
<path d="M0 0 C1.4606285 2.64738916 2 3.89448334 2 7 C2.7425 6.46375 3.485 5.9275 4.25 5.375 C7 4 7 4 9.25 4.625 C11 6 11 6 12 9 C10.68 9.33 9.36 9.66 8 10 C8 10.66 8 11.32 8 12 C4.7 12.33 1.4 12.66 -2 13 C-2.33 13.99 -2.66 14.98 -3 16 C-3.75 14.3125 -3.75 14.3125 -4 12 C-3.360625 11.236875 -2.72125 10.47375 -2.0625 9.6875 C0.55657317 6.27476829 0.32918862 4.19715486 0 0 Z " fill="#9AC07E" transform="translate(112,94)"/>
<path d="M0 0 C6.07328688 -0.50610724 9.77228537 0.95842058 15 4 C15 4.66 15 5.32 15 6 C16.65 6.66 18.3 7.32 20 8 C19.01 8.495 19.01 8.495 18 9 C18 10.32 18 11.64 18 13 C18.66 13.33 19.32 13.66 20 14 C17 14 17 14 15.3125 12.625 C14 11 14 11 14 9 C13.17242187 8.59974609 13.17242187 8.59974609 12.328125 8.19140625 C9.73951093 6.86669603 7.2488958 5.42441607 4.75 3.9375 C3.85796875 3.41027344 2.9659375 2.88304687 2.046875 2.33984375 C1.37140625 1.89769531 0.6959375 1.45554687 0 1 C0 0.67 0 0.34 0 0 Z " fill="#A9C495" transform="translate(111,14)"/>
<path d="M0 0 C0.33 2.97 0.66 5.94 1 9 C-1.97 8.67 -4.94 8.34 -8 8 C-6.68 7.67 -5.36 7.34 -4 7 C-4 6.01 -4 5.02 -4 4 C-6.97 4 -9.94 4 -13 4 C-13 3.67 -13 3.34 -13 3 C-17.95 2.67 -22.9 2.34 -28 2 C-28 1.67 -28 1.34 -28 1 C-24.27091231 0.83153467 -20.54171841 0.66554419 -16.8125 0.5 C-15.75740234 0.45230469 -14.70230469 0.40460938 -13.61523438 0.35546875 C-12.08286133 0.28779297 -12.08286133 0.28779297 -10.51953125 0.21875 C-9.58214111 0.17685547 -8.64475098 0.13496094 -7.67895508 0.09179688 C-5.11673177 0.00399992 -2.56347632 -0.01626313 0 0 Z " fill="#A4C48E" transform="translate(100,106)"/>
<path d="M0 0 C1.32 0 2.64 0 4 0 C3.84402344 0.73992188 3.68804687 1.47984375 3.52734375 2.2421875 C2.63602295 8.59367351 2.63857887 15.00391093 2.48242188 21.41015625 C2.44826172 22.45300781 2.41410156 23.49585938 2.37890625 24.5703125 C2.3538501 25.51664551 2.32879395 26.46297852 2.30297852 27.43798828 C2 30 2 30 0 34 C0 22.78 0 11.56 0 0 Z " fill="#F78426" transform="translate(74,42)"/>
<path d="M0 0 C0.66 0 1.32 0 2 0 C2 7.92 2 15.84 2 24 C1.01 24.33 0.02 24.66 -1 25 C-1.0271045 21.95827281 -1.04688964 18.91679003 -1.0625 15.875 C-1.07087891 15.0190625 -1.07925781 14.163125 -1.08789062 13.28125 C-1.10538306 8.73321589 -0.93192358 4.47616836 0 0 Z " fill="#97BF8B" transform="translate(6,39)"/>
<path d="M0 0 C1.9375 0.625 1.9375 0.625 4 2 C4.75 5.125 4.75 5.125 5 8 C5.66 8 6.32 8 7 8 C8.66666667 13 10.33333333 18 12 23 C11.360625 23.103125 10.72125 23.20625 10.0625 23.3125 C9.381875 23.539375 8.70125 23.76625 8 24 C7.67 24.99 7.34 25.98 7 27 C3.62537285 26.45276317 1.91765 25.9451 -1 24 C1.31 24 3.62 24 6 24 C6.33 23.34 6.66 22.68 7 22 C7.66 22.33 8.32 22.66 9 23 C7.90111478 17.87186896 6.46790083 13.59565512 4.01953125 8.96484375 C2.50484375 6.04573336 1.26445597 3.03469432 0 0 Z " fill="#BBDA1F" transform="translate(90,42)"/>
<path d="M0 0 C11.67908462 8.55455029 11.67908462 8.55455029 15 12 C15 12.66 15 13.32 15 14 C12.125 13.75 12.125 13.75 9 13 C8.7009375 12.38125 8.401875 11.7625 8.09375 11.125 C6.66723755 8.35349009 5.11857693 7.66098242 2.375 6.25 C1.55773438 5.82203125 0.74046875 5.3940625 -0.1015625 4.953125 C-0.72804687 4.63859375 -1.35453125 4.3240625 -2 4 C-1.34 2.68 -0.68 1.36 0 0 Z " fill="#C7C229" transform="translate(56,64)"/>
<path d="M0 0 C0.28875 0.61875 0.5775 1.2375 0.875 1.875 C2.51822246 4.97886464 5.05425485 6.20693774 8 8 C5.66266335 8.80867674 4.38955431 9.12401827 2 8.36328125 C-1.20270533 6.6806099 -3.70219928 5.30607296 -6.25 2.6875 C-6.8275 2.130625 -7.405 1.57375 -8 1 C-10.21858253 1.13641377 -10.21858253 1.13641377 -12 2 C-12 1.01 -12 0.02 -12 -1 C-3.07894737 -2.48684211 -3.07894737 -2.48684211 0 0 Z " fill="#A7C444" transform="translate(84,87)"/>
<path d="M0 0 C0.99 0 1.98 0 3 0 C3.309375 0.8353125 3.309375 0.8353125 3.625 1.6875 C5.19302795 4.32463791 7.15996813 5.7635429 9.546875 7.640625 C11.76363009 9.71436363 12.75296522 12.2684 14 15 C14.86625 15.804375 14.86625 15.804375 15.75 16.625 C16.1625 17.07875 16.575 17.5325 17 18 C16.6875 20.1875 16.6875 20.1875 16 22 C13.15272818 18.74597507 10.72404775 15.6226185 8.5625 11.875 C6.8884417 9.07068578 5.4948935 7.4238919 2.6875 5.75 C1.800625 5.1725 0.91375 4.595 0 4 C0 2.68 0 1.36 0 0 Z " fill="#4A6505" transform="translate(33,34)"/>
<path d="M0 0 C2.0625 0.4375 2.0625 0.4375 4 1 C3.34 1 2.68 1 2 1 C1.7525 1.639375 1.505 2.27875 1.25 2.9375 C0 5 0 5 -2.125 5.75 C-3.053125 5.87375 -3.053125 5.87375 -4 6 C-4 6.66 -4 7.32 -4 8 C-7.45730521 10.44045073 -10.96678237 11.78065514 -15 13 C-15.33 12.34 -15.66 11.68 -16 11 C-11.17464831 7.2399857 -6.35717381 3.9519121 -1 1 C-0.67 0.67 -0.34 0.34 0 0 Z " fill="#ACC45D" transform="translate(68,89)"/>
<path d="M0 0 C0.33 0 0.66 0 1 0 C1.0501123 0.57967529 1.10022461 1.15935059 1.15185547 1.7565918 C1.38497534 4.40099577 1.62987578 7.04418287 1.875 9.6875 C1.95363281 10.59951172 2.03226563 11.51152344 2.11328125 12.45117188 C2.54332852 16.99974874 3.06547687 20.80853322 5 25 C5.125 27.8125 5.125 27.8125 5 30 C-1.24032988 23.75967012 -1.11075416 15.81132336 -1.1875 7.4375 C-1.15367965 1.15367965 -1.15367965 1.15367965 0 0 Z " fill="#8EA481" transform="translate(14,51)"/>
<path d="M0 0 C0.66 0.66 1.32 1.32 2 2 C1.76220935 4.4571701 1.38208547 5.64682911 -0.4453125 7.3359375 C-2.32717857 9.35019616 -2.88882051 11.06326738 -3.6875 13.6875 C-3.93886719 14.49574219 -4.19023438 15.30398437 -4.44921875 16.13671875 C-4.63097656 16.75160156 -4.81273438 17.36648437 -5 18 C-5.66 18 -6.32 18 -7 18 C-7.25684171 13.63369099 -7.4224636 10.03503582 -5.75 5.9375 C-5.1725 5.298125 -4.595 4.65875 -4 4 C-2.68 4 -1.36 4 0 4 C0 2.68 0 1.36 0 0 Z " fill="#A2AF58" transform="translate(112,131)"/>
<path d="M0 0 C2.31 0 4.62 0 7 0 C6.67 0.99 6.34 1.98 6 3 C5.34 3 4.68 3 4 3 C4 10.92 4 18.84 4 27 C2.68 27 1.36 27 0 27 C0.33 26.34 0.66 25.68 1 25 C1.20873282 22.22559288 1.37466621 19.46573236 1.5 16.6875 C1.92048136 7.50699033 1.92048136 7.50699033 3 3 C2.01 2.67 1.02 2.34 0 2 C0 1.34 0 0.68 0 0 Z " fill="#F2581C" transform="translate(66,41)"/>
<path d="M0 0 C0.99 0.495 0.99 0.495 2 1 C3.00546691 7.36795708 3.12739428 13.62798275 3.0625 20.0625 C3.05798828 20.92810547 3.05347656 21.79371094 3.04882812 22.68554688 C3.03719913 24.79039539 3.01927073 26.89520758 3 29 C2.34 29.33 1.68 29.66 1 30 C0.67 20.1 0.34 10.2 0 0 Z " fill="#F6AD28" transform="translate(78,41)"/>
<path d="M0 0 C0.66 1.65 1.32 3.3 2 5 C-0.475 4.01 -0.475 4.01 -3 3 C-2.814375 3.969375 -2.62875 4.93875 -2.4375 5.9375 C-2.293125 6.948125 -2.14875 7.95875 -2 9 C-2.33 9.33 -2.66 9.66 -3 10 C-3.09997642 12.49058914 -3.13879627 14.94727395 -3.125 17.4375 C-3.12886719 18.13166016 -3.13273437 18.82582031 -3.13671875 19.54101562 C-3.19359835 23.39769757 -3.19359835 23.39769757 -2 27 C-2.99 27 -3.98 27 -5 27 C-5.33 18.42 -5.66 9.84 -6 1 C-4 0 -4 0 0 0 Z " fill="#EBE034" transform="translate(90,41)"/>
<path d="M0 0 C0.66 0 1.32 0 2 0 C2.28875 0.639375 2.5775 1.27875 2.875 1.9375 C3.82823451 4.15206079 3.82823451 4.15206079 6 5 C6 5.66 6 6.32 6 7 C3.48046875 8.7265625 3.48046875 8.7265625 0.1875 10.625 C-0.89144531 11.25664063 -1.97039062 11.88828125 -3.08203125 12.5390625 C-6 14 -6 14 -9 14 C-9 14.66 -9 15.32 -9 16 C-9.66 16 -10.32 16 -11 16 C-11 14.35 -11 12.7 -11 11 C-7.7 10.67 -4.4 10.34 -1 10 C-1 9.34 -1 8.68 -1 8 C-0.01 7.34 0.98 6.68 2 6 C1.34 5.01 0.68 4.02 0 3 C0 2.01 0 1.02 0 0 Z " fill="#A6C496" transform="translate(121,96)"/>
<path d="M0 0 C7.93406593 11.9010989 7.93406593 11.9010989 7 19 C3.04 19.495 3.04 19.495 -1 20 C0 18 0 18 3 17 C3 15.02 3 13.04 3 11 C2.01 10.67 1.02 10.34 0 10 C0 6.7 0 3.4 0 0 Z " fill="#D9EB27" transform="translate(92,46)"/>
<path d="M0 0 C0.33 0.66 0.66 1.32 1 2 C1.66 2.33 2.32 2.66 3 3 C5 4 5 4 6 6 C5.01 6 4.02 6 3 6 C3 6.99 3 7.98 3 9 C3.66 9.33 4.32 9.66 5 10 C3.02 10.99 3.02 10.99 1 12 C1 12.66 1 13.32 1 14 C-1.475 13.01 -1.475 13.01 -4 12 C-4 10 -4 10 -2 8 C-1.32707499 6.03309626 -1.32707499 6.03309626 -0.875 3.875 C-0.58625 2.59625 -0.2975 1.3175 0 0 Z " fill="#BAD78C" transform="translate(29,90)"/>
<path d="M0 0 C2.4375 0.375 2.4375 0.375 5 1 C5.33 1.66 5.66 2.32 6 3 C6.99 3.28875 7.98 3.5775 9 3.875 C9.99 4.24625 10.98 4.6175 12 5 C12.75 7.0625 12.75 7.0625 13 9 C13.66 9.33 14.32 9.66 15 10 C15 10.66 15 11.32 15 12 C16.32 12 17.64 12 19 12 C18.67 12.99 18.34 13.98 18 15 C16.3125 14.875 16.3125 14.875 14 14 C12.83654258 12.6038511 11.67906165 11.201698 10.5703125 9.76171875 C7.99811425 6.87599384 4.89172431 4.70791373 1.79296875 2.41796875 C1.20128906 1.95003906 0.60960937 1.48210937 0 1 C0 0.67 0 0.34 0 0 Z " fill="#DB7513" transform="translate(57,64)"/>
<path d="M0 0 C0.33 0 0.66 0 1 0 C1.185625 1.5778125 1.185625 1.5778125 1.375 3.1875 C1.81440108 6.84707112 1.81440108 6.84707112 3.0625 9.4375 C4.38654146 13.05654665 4.13023559 16.15804997 4 20 C3.67 19.34 3.34 18.68 3 18 C2.34 18 1.68 18 1 18 C0.67 16.35 0.34 14.7 0 13 C-0.33 13 -0.66 13 -1 13 C-1.02686553 11.02090602 -1.04633375 9.04171029 -1.0625 7.0625 C-1.07410156 5.96035156 -1.08570313 4.85820313 -1.09765625 3.72265625 C-1 1 -1 1 0 0 Z " fill="#98CF7D" transform="translate(9,40)"/>
<path d="M0 0 C15.84 0.495 15.84 0.495 32 1 C32 1.33 32 1.66 32 2 C26.50365278 2.91605787 21.12249559 3.11019966 15.5625 3.125 C14.83998047 3.12951172 14.11746094 3.13402344 13.37304688 3.13867188 C8.12371652 3.12371652 8.12371652 3.12371652 7 2 C4.67182036 1.63239269 2.3381615 1.29758419 0 1 C0 0.67 0 0.34 0 0 Z " fill="#7AA268" transform="translate(61,107)"/>
<path d="M0 0 C2.8125 -0.3125 2.8125 -0.3125 6 0 C7.88599343 2.38892501 9 3.91851558 9 7 C9.66 7 10.32 7 11 7 C10.67 8.32 10.34 9.64 10 11 C8.125 10.8125 8.125 10.8125 6 10 C5.29788106 8.34795544 4.63028587 6.68076231 4 5 C3.01 4.67 2.02 4.34 1 4 C0.3125 1.9375 0.3125 1.9375 0 0 Z " fill="#A7D120" transform="translate(95,94)"/>
<path d="M0 0 C5.75 0.875 5.75 0.875 8 2 C7.67 2.99 7.34 3.98 7 5 C5.34302621 5.69040574 3.6744239 6.3530635 2 7 C0.29705213 8.28667172 -1.37946188 9.61096733 -3 11 C-3 10.01 -3 9.02 -3 8 C-2.34 7.67 -1.68 7.34 -1 7 C-0.67 6.01 -0.34 5.02 0 4 C-0.66 4 -1.32 4 -2 4 C-1.34 2.68 -0.68 1.36 0 0 Z " fill="#9BBE1D" transform="translate(88,67)"/>
<path d="M0 0 C1.5625 1.125 1.5625 1.125 3 3 C2.6875 6.1875 2.6875 6.1875 2 9 C3.32 9.66 4.64 10.32 6 11 C5.34 11 4.68 11 4 11 C3.67 11.66 3.34 12.32 3 13 C-0.13263778 11.95578741 -0.90385789 11.18810414 -2.4375 8.1875 C-3 5 -3 5 -1.625 2.125 C-1.08875 1.42375 -0.5525 0.7225 0 0 Z " fill="#ACC44B" transform="translate(101,120)"/>
<path d="M0 0 C3.125 6.25 3.125 6.25 3.09765625 10.3515625 C3.09443359 11.20234375 3.09121094 12.053125 3.08789062 12.9296875 C3.07951172 13.81914063 3.07113281 14.70859375 3.0625 15.625 C3.05798828 16.5221875 3.05347656 17.419375 3.04882812 18.34375 C3.03702591 20.56256648 3.02056155 22.78125018 3 25 C2.34 25.33 1.68 25.66 1 26 C0.67 17.42 0.34 8.84 0 0 Z " fill="#94B586" transform="translate(144,44)"/>
<path d="M0 0 C0.33 0 0.66 0 1 0 C1 7.59 1 15.18 1 23 C1.66 23.33 2.32 23.66 3 24 C2.34 24.99 1.68 25.98 1 27 C0.01 26.67 -0.98 26.34 -2 26 C-1.34 17.42 -0.68 8.84 0 0 Z " fill="#F0CD2C" transform="translate(84,45)"/>
<path d="M0 0 C1.32 0 2.64 0 4 0 C4 0.99 4 1.98 4 3 C4.66 3 5.32 3 6 3 C6.28875 3.94875 6.5775 4.8975 6.875 5.875 C7.76825109 9.05211578 7.76825109 9.05211578 10 11 C10.6328125 13.1640625 10.6328125 13.1640625 11.125 15.625 C11.37636719 16.85089844 11.37636719 16.85089844 11.6328125 18.1015625 C11.81457031 19.04128906 11.81457031 19.04128906 12 20 C11.34 20 10.68 20 10 20 C7.4606772 16.58168085 6.6363802 14.24223102 7 10 C6.34 10 5.68 10 5 10 C4.54625 8.865625 4.0925 7.73125 3.625 6.5625 C2.42904194 2.95278308 2.42904194 2.95278308 0 2 C0 1.34 0 0.68 0 0 Z " fill="#A6D316" transform="translate(90,40)"/>
<path d="M0 0 C0.99 0.33 1.98 0.66 3 1 C2.61704951 3.22111286 2.13079812 4.80380283 0.875 6.6875 C-1.9185979 8.64301853 -4.64754667 8.65319448 -8 9 C-9.66934283 9.31966139 -11.3373217 9.64731066 -13 10 C-8.5 6 -8.5 6 -4 6 C-4 5.01 -4 4.02 -4 3 C-3.01 2.67 -2.02 2.34 -1 2 C-0.67 1.34 -0.34 0.68 0 0 Z " fill="#C1C522" transform="translate(85,70)"/>
<path d="M0 0 C4.05606165 0.46800711 7.46588679 0.87953208 11 3 C11 3.99 11 4.98 11 6 C7.9993581 7.26950234 6.94815444 6.98068499 3.8125 5.8125 C1 4 1 4 0.125 1.8125 C0.08375 1.214375 0.0425 0.61625 0 0 Z " fill="#B4D528" transform="translate(23,26)"/>
<path d="M0 0 C10.72524662 -0.56229448 10.72524662 -0.56229448 15 3 C15 3.33 15 3.66 15 4 C9.87416389 4.10251672 5.05002222 4.03590199 0 3 C0 2.01 0 1.02 0 0 Z " fill="#869E80" transform="translate(75,2)"/>
<path d="M0 0 C0.66 0 1.32 0 2 0 C2.33 1.65 2.66 3.3 3 5 C3.66 5 4.32 5 5 5 C5 8.3 5 11.6 5 15 C2 14 2 14 0.75 11.875 C-0.18252152 8.30033417 0.29513036 5.59483517 1 2 C0.34 1.67 -0.32 1.34 -1 1 C-0.67 0.67 -0.34 0.34 0 0 Z " fill="#AFC148" transform="translate(30,130)"/>
<path d="M0 0 C1.73986737 3.47973473 0.70995561 7.27425002 0 11 C-0.84422426 13.45673727 -1.85466881 15.65954062 -3 18 C-2.34 18.33 -1.68 18.66 -1 19 C-1 19.66 -1 20.32 -1 21 C-1.66 21 -2.32 21 -3 21 C-3 21.99 -3 22.98 -3 24 C-3.66 24 -4.32 24 -5 24 C-3.84968685 3.84968685 -3.84968685 3.84968685 0 0 Z " fill="#A4D124" transform="translate(55,40)"/>
<path d="M0 0 C4.08276326 0.40158327 8.05208447 0.84852464 12 2 C11.67 3.65 11.34 5.3 11 7 C8.36 6.34 5.72 5.68 3 5 C3 4.34 3 3.68 3 3 C1.68 2.34 0.36 1.68 -1 1 C-0.67 0.67 -0.34 0.34 0 0 Z " fill="#88A541" transform="translate(120,41)"/>
<path d="M0 0 C0.721875 0.763125 1.44375 1.52625 2.1875 2.3125 C4.83926978 5.044086 4.83926978 5.044086 7.8125 6.6875 C8.534375 7.120625 9.25625 7.55375 10 8 C10 8.66 10 9.32 10 10 C7.69 10.33 5.38 10.66 3 11 C0.84694043 7.14243493 -0.39253254 4.44870215 0 0 Z " fill="#A5D285" transform="translate(12,78)"/>
<path d="M0 0 C0.928125 1.175625 0.928125 1.175625 1.875 2.375 C3.89858661 4.96837647 3.89858661 4.96837647 6 7 C5.9765625 9.6015625 5.9765625 9.6015625 5.625 12.625 C5.51414062 13.62789062 5.40328125 14.63078125 5.2890625 15.6640625 C5.19367187 16.43492188 5.09828125 17.20578125 5 18 C4.67 18 4.34 18 4 18 C4 15.69 4 13.38 4 11 C3.34 11 2.68 11 2 11 C-1.07692308 5.70769231 -1.07692308 5.70769231 -0.6875 2.125 C-0.460625 1.42375 -0.23375 0.7225 0 0 Z " fill="#9AB43E" transform="translate(43,48)"/>
<path d="M0 0 C1.9375 0.6875 1.9375 0.6875 4 2 C4.75 4.625 4.75 4.625 5 7 C2.04335481 8.4783226 -0.74229737 8.06032783 -4 8 C-3 5 -3 5 -1 3 C-0.67 2.01 -0.34 1.02 0 0 Z " fill="#8CB50C" transform="translate(80,29)"/>
<path d="M0 0 C0.99 0 1.98 0 3 0 C3 0.66 3 1.32 3 2 C1.3203125 3.62109375 1.3203125 3.62109375 -0.875 5.4375 C-3.46193722 7.58400884 -5.11184374 9.16776562 -7 12 C-7.99 12 -8.98 12 -10 12 C-10 10.68 -10 9.36 -10 8 C-9.34 8 -8.68 8 -8 8 C-8 7.34 -8 6.68 -8 6 C-6.68 6 -5.36 6 -4 6 C-4 5.01 -4 4.02 -4 3 C-2.68 2.67 -1.36 2.34 0 2 C0 1.34 0 0.68 0 0 Z " fill="#729910" transform="translate(60,90)"/>
<path d="M0 0 C1.32 0 2.64 0 4 0 C4.66 1.65 5.32 3.3 6 5 C5.34 5 4.68 5 4 5 C3.34 7.31 2.68 9.62 2 12 C1.34 12 0.68 12 0 12 C0 8.04 0 4.08 0 0 Z " fill="#BBD22A" transform="translate(32,108)"/>
<path d="M0 0 C2 3 2 3 1.64453125 5.375 C1.36996094 6.24125 1.09539063 7.1075 0.8125 8 C0.55082031 8.86625 0.28914063 9.7325 0.01953125 10.625 C-1.01378319 13.03210797 -2.02855777 14.31177905 -4 16 C-4.33 13.69 -4.66 11.38 -5 9 C-4.34 9 -3.68 9 -3 9 C-2.67 6.69 -2.34 4.38 -2 2 C-1.34 2 -0.68 2 0 2 C0 1.34 0 0.68 0 0 Z " fill="#8CAB81" transform="translate(18,32)"/>
<path d="M0 0 C12.66970387 -0.3690205 12.66970387 -0.3690205 18 2 C18 2.33 18 2.66 18 3 C5.33029613 3.18451025 5.33029613 3.18451025 0 2 C0 1.34 0 0.68 0 0 Z " fill="#456507" transform="translate(94,40)"/>
<path d="M0 0 C2 0 2 0 3.625 1.5 C4.07875 1.995 4.5325 2.49 5 3 C5.33 2.01 5.66 1.02 6 0 C6.33 0 6.66 0 7 0 C7.13277344 0.84304687 7.26554687 1.68609375 7.40234375 2.5546875 C7.57894531 3.65039062 7.75554687 4.74609375 7.9375 5.875 C8.11152344 6.96554688 8.28554687 8.05609375 8.46484375 9.1796875 C8.85551159 11.93821546 8.85551159 11.93821546 10 14 C8.68 14 7.36 14 6 14 C6 11.03 6 8.06 6 5 C5.195625 4.731875 4.39125 4.46375 3.5625 4.1875 C2.716875 3.795625 1.87125 3.40375 1 3 C0.67 2.01 0.34 1.02 0 0 Z " fill="#AFCA6E" transform="translate(94,100)"/>
<path d="M0 0 C0 0.99 0 1.98 0 3 C-0.66 3 -1.32 3 -2 3 C-2.33 3.99 -2.66 4.98 -3 6 C-5.31 6.33 -7.62 6.66 -10 7 C-9.2575 6.38125 -9.2575 6.38125 -8.5 5.75 C-6.56613908 3.87797662 -6.56613908 3.87797662 -7 0 C-3.86650268 -1.04449911 -3.01031744 -0.93423645 0 0 Z " fill="#AFC748" transform="translate(132,47)"/>
<path d="M0 0 C0.99 0 1.98 0 3 0 C2.125 5.75 2.125 5.75 1 8 C0.34 8 -0.32 8 -1 8 C-1.433125 9.4540625 -1.433125 9.4540625 -1.875 10.9375 C-3 14 -3 14 -5 15 C-4.50666649 10.65866511 -3.63910173 8.40883973 -1 5 C-0.28566879 2.35065178 -0.28566879 2.35065178 0 0 Z " fill="#BAC872" transform="translate(40,78)"/>
<path d="M0 0 C6.48292295 -0.3669579 6.48292295 -0.3669579 8.9375 1.375 C10 3 10 3 10 5 C7.03 5 4.06 5 1 5 C0.67 3.35 0.34 1.7 0 0 Z " fill="#8EB538" transform="translate(113,41)"/>
<path d="M0 0 C8.57142857 -0.14285714 8.57142857 -0.14285714 12 1 C12 1.66 12 2.32 12 3 C6.06 3.495 6.06 3.495 0 4 C0 2.68 0 1.36 0 0 Z " fill="#A2420E" transform="translate(60,38)"/>
<path d="M0 0 C6.57791873 0.41044485 12.74051886 0.86608597 19 3 C18.34 3.66 17.68 4.32 17 5 C14.35546875 4.828125 14.35546875 4.828125 11.1875 4.25 C9.63095703 3.97929688 9.63095703 3.97929688 8.04296875 3.703125 C5.19754118 3.04564494 2.67193381 2.16557556 0 1 C0 0.67 0 0.34 0 0 Z " fill="#9AB152" transform="translate(98,37)"/>
<path d="M0 0 C0.33 0.66 0.66 1.32 1 2 C1.66 2.33 2.32 2.66 3 3 C2.67 3.66 2.34 4.32 2 5 C2.66 5 3.32 5 4 5 C4.39180108 6.57925975 4.76280736 8.16368794 5.125 9.75 C5.33382812 10.63171875 5.54265625 11.5134375 5.7578125 12.421875 C6.03088304 15.32875493 5.53508028 16.56661348 4 19 C4 17.02 4 15.04 4 13 C3.34 13 2.68 13 2 13 C1.34 8.71 0.68 4.42 0 0 Z " fill="#6B7E2C" transform="translate(107,79)"/>
<path d="M0 0 C1.8125 0.1875 1.8125 0.1875 4 1 C5.5625 3.375 5.5625 3.375 7 6 C8.58245275 7.75149165 8.58245275 7.75149165 10 9 C3.61657459 8.39779006 3.61657459 8.39779006 1.0625 6.75 C-0.35440053 4.41628148 -0.21718696 2.67863922 0 0 Z " fill="#B1C8A7" transform="translate(16,78)"/>
<path d="M0 0 C1.953125 0.8359375 1.953125 0.8359375 4 2 C4.75 4.625 4.75 4.625 5 7 C4.34 7 3.68 7 3 7 C3 7.763125 3 8.52625 3 9.3125 C3 11.20833333 3 13.10416667 3 15 C1.51171875 13.88671875 1.51171875 13.88671875 0 12 C-0.29296875 9.08203125 -0.29296875 9.08203125 -0.1875 5.8125 C-0.16042969 4.72582031 -0.13335937 3.63914062 -0.10546875 2.51953125 C-0.07066406 1.68808594 -0.03585938 0.85664062 0 0 Z " fill="#3E5705" transform="translate(100,67)"/>
<path d="M0 0 C1.3609623 2.7219246 0.70366248 4.1831957 0.0625 7.125 C-0.13214844 8.03507812 -0.32679687 8.94515625 -0.52734375 9.8828125 C-0.68332031 10.58148438 -0.83929688 11.28015625 -1 12 C-1.66 12 -2.32 12 -3 12 C-3.33 13.65 -3.66 15.3 -4 17 C-5.19908285 13.53151203 -4.78945844 11.40005188 -3.6875 7.9375 C-3.42324219 7.08027344 -3.15898438 6.22304687 -2.88671875 5.33984375 C-2 3 -2 3 0 0 Z " fill="#B7D530" transform="translate(44,78)"/>
<path d="M0 0 C1.98 0.495 1.98 0.495 4 1 C4 2.98 4 4.96 4 7 C2.68 7.33 1.36 7.66 0 8 C-0.33 9.32 -0.66 10.64 -1 12 C-1 9.36 -1 6.72 -1 4 C-0.34 4 0.32 4 1 4 C0.67 2.68 0.34 1.36 0 0 Z " fill="#9FB327" transform="translate(36,108)"/>
<path d="M0 0 C0.33 0 0.66 0 1 0 C1.05437607 1.58294782 1.09296271 3.16644256 1.125 4.75 C1.14820313 5.63171875 1.17140625 6.5134375 1.1953125 7.421875 C0.99139502 10.1135858 0.36551721 11.69904974 -1 14 C-1 13.01 -1 12.02 -1 11 C-1.99 10.67 -2.98 10.34 -4 10 C-3.29445932 6.33118845 -1.72264494 3.29549466 0 0 Z " fill="#8FA82A" transform="translate(39,86)"/>
<path d="M0 0 C0.33 1.65 0.66 3.3 1 5 C-1.25 5.75 -1.25 5.75 -4 6 C-6.3125 4.125 -6.3125 4.125 -8 2 C-8 1.67 -8 1.34 -8 1 C-5.23735711 0.40267181 -2.83967231 0 0 0 Z " fill="#BCC026" transform="translate(85,37)"/>
<path d="M0 0 C0 0.66 0 1.32 0 2 C0.99 2.33 1.98 2.66 3 3 C-2.69051363 2.4618629 -8.34865884 1.8599867 -14 1 C-14 0.67 -14 0.34 -14 0 C-9.02936879 -0.91297308 -4.97063121 -0.91297308 0 0 Z " fill="#9EAB23" transform="translate(75,37)"/>
<path d="M0 0 C0.66 0 1.32 0 2 0 C1.67 1.32 1.34 2.64 1 4 C1.66 4 2.32 4 3 4 C3 3.01 3 2.02 3 1 C3.66 1 4.32 1 5 1 C6.0625 2.8125 6.0625 2.8125 7 5 C6.67 5.99 6.34 6.98 6 8 C3.69 7.01 1.38 6.02 -1 5 C-0.67 3.35 -0.34 1.7 0 0 Z " fill="#91C177" transform="translate(137,35)"/>
<path d="M0 0 C0 1.65 0 3.3 0 5 C4.62 5 9.24 5 14 5 C10.74004414 7.17330391 9.77020034 7.24921459 6 7.1875 C5.13375 7.18105469 4.2675 7.17460938 3.375 7.16796875 C1 7 1 7 -2 6 C-2.33 4.35 -2.66 2.7 -3 1 C-1 0 -1 0 0 0 Z " fill="#94C11B" transform="translate(66,28)"/>
<path d="M0 0 C1.125 3.75 1.125 3.75 0 6 C-0.66 6 -1.32 6 -2 6 C-1.67 7.65 -1.34 9.3 -1 11 C-2.65 10.67 -4.3 10.34 -6 10 C-4.27256146 6.38060496 -2.52349243 3.12432397 0 0 Z " fill="#A2C041" transform="translate(65,23)"/>
<path d="M0 0 C0.61875 0.7734375 0.61875 0.7734375 1.25 1.5625 C-2.1852048 3.85263653 -3.735331 3.74092973 -7.75 3.5625 C-8.08 4.2225 -8.41 4.8825 -8.75 5.5625 C-8.17655063 2.69525314 -7.8885485 1.7010485 -5.75 -0.4375 C-2.295961 -1.88596797 -2.295961 -1.88596797 0 0 Z " fill="#A7CD7C" transform="translate(48.75,104.4375)"/>
<path d="M0 0 C0.33 0 0.66 0 1 0 C1.38897161 1.62171239 1.76078298 3.24754925 2.125 4.875 C2.33382812 5.77992187 2.54265625 6.68484375 2.7578125 7.6171875 C2.83773437 8.40351562 2.91765625 9.18984375 3 10 C2.34 10.66 1.68 11.32 1 12 C0.01 12 -0.98 12 -2 12 C-1.979375 11.05125 -1.95875 10.1025 -1.9375 9.125 C-1.77448174 6.09333717 -1.77448174 6.09333717 -3 4 C-2.34 4 -1.68 4 -1 4 C-0.67 2.68 -0.34 1.36 0 0 Z " fill="#2C490A" transform="translate(110,92)"/>
<path d="M0 0 C1.65 0 3.3 0 5 0 C5 0.66 5 1.32 5 2 C5.66 2 6.32 2 7 2 C7 1.34 7 0.68 7 0 C9.475 0.99 9.475 0.99 12 2 C12 3.32 12 4.64 12 6 C11.505 5.731875 11.01 5.46375 10.5 5.1875 C7.0763054 3.56124507 3.55867715 2.30484829 0 1 C0 0.67 0 0.34 0 0 Z " fill="#97BC42" transform="translate(40,100)"/>
<path d="M0 0 C0.33 0.99 0.66 1.98 1 3 C-0.98 3 -2.96 3 -5 3 C-5.33 4.32 -5.66 5.64 -6 7 C-6 5.02 -6 3.04 -6 1 C-6.66 0.67 -7.32 0.34 -8 0 C-4.71023192 -1.09658936 -3.28696233 -0.79953138 0 0 Z " fill="#9FCD75" transform="translate(36,101)"/>
<path d="M0 0 C2.0625 0.4375 2.0625 0.4375 4 1 C3.67 2.32 3.34 3.64 3 5 C1.35 5.33 -0.3 5.66 -2 6 C-1.125 1.125 -1.125 1.125 0 0 Z " fill="#A2CE73" transform="translate(127,93)"/>
<path d="M0 0 C0 0.66 0 1.32 0 2 C-0.7425 2.268125 -1.485 2.53625 -2.25 2.8125 C-5.02423915 3.86882225 -5.02423915 3.86882225 -7.125 5.6875 C-7.74375 6.120625 -8.3625 6.55375 -9 7 C-9.99 6.67 -10.98 6.34 -12 6 C-11.01 5.34 -10.02 4.68 -9 4 C-8.67 3.01 -8.34 2.02 -8 1 C-5.07175348 0.02391783 -3.04386724 -0.08226668 0 0 Z " fill="#9DC32C" transform="translate(72,87)"/>
<path d="M0 0 C0.99 0.33 1.98 0.66 3 1 C1.68 2.65 0.36 4.3 -1 6 C-0.34 6 0.32 6 1 6 C0.67 6.66 0.34 7.32 0 8 C-2.64 8 -5.28 8 -8 8 C-7.67 7.34 -7.34 6.68 -7 6 C-5.35 6 -3.7 6 -2 6 C-1.855625 5.195625 -1.71125 4.39125 -1.5625 3.5625 C-1 1 -1 1 0 0 Z " fill="#9BBF1F" transform="translate(81,78)"/>
<path d="M0 0 C-0.33 1.98 -0.66 3.96 -1 6 C-3.66666667 5.33333333 -6.33333333 4.66666667 -9 4 C-9 3.34 -9 2.68 -9 2 C-2.25 0 -2.25 0 0 0 Z " fill="#A9C991" transform="translate(50,106)"/>
<path d="M0 0 C2.64 0 5.28 0 8 0 C8.33 0.99 8.66 1.98 9 3 C9.66 3.33 10.32 3.66 11 4 C11 4.66 11 5.32 11 6 C10.01 6 9.02 6 8 6 C7.360625 5.319375 6.72125 4.63875 6.0625 3.9375 C5.381875 3.298125 4.70125 2.65875 4 2 C1.78141747 2.13641377 1.78141747 2.13641377 0 3 C0 2.01 0 1.02 0 0 Z " fill="#B3C684" transform="translate(72,86)"/>
<path d="M0 0 C0.99 0.33 1.98 0.66 3 1 C3.73046875 3.06640625 3.73046875 3.06640625 4.1875 5.5625 C4.34605469 6.38878906 4.50460938 7.21507813 4.66796875 8.06640625 C4.77753906 8.70449219 4.88710937 9.34257813 5 10 C4.34 10 3.68 10 3 10 C0.4606772 6.58168085 -0.3636198 4.24223102 0 0 Z " fill="#769369" transform="translate(10,82)"/>
<path d="M0 0 C0.66 0 1.32 0 2 0 C2.22162329 1.62324086 2.42689803 3.248721 2.625 4.875 C2.74101563 5.77992187 2.85703125 6.68484375 2.9765625 7.6171875 C2.98429687 8.40351562 2.99203125 9.18984375 3 10 C2.34 10.66 1.68 11.32 1 12 C0.34 11.67 -0.32 11.34 -1 11 C-1.33 11.66 -1.66 12.32 -2 13 C-1.855625 12.34 -1.71125 11.68 -1.5625 11 C-0.87700084 7.34400449 -0.43824485 3.69377805 0 0 Z " fill="#C7DE74" transform="translate(45,59)"/>
<path d="M0 0 C-0.33 1.32 -0.66 2.64 -1 4 C-2.65 4.33 -4.3 4.66 -6 5 C-6 3.35 -6 1.7 -6 0 C-2.25 -1.125 -2.25 -1.125 0 0 Z " fill="#ADD51E" transform="translate(126,48)"/>
<path d="M0 0 C3.3 0.33 6.6 0.66 10 1 C10 1.99 10 2.98 10 4 C6.37 4 2.74 4 -1 4 C-0.67 2.68 -0.34 1.36 0 0 Z " fill="#A9C39A" transform="translate(58,105)"/>
<path d="M0 0 C5.4611399 0.35233161 5.4611399 0.35233161 8 1 C9.5 3.0625 9.5 3.0625 10 5 C3.47692308 4.50769231 3.47692308 4.50769231 1.0625 1.9375 C0.711875 1.298125 0.36125 0.65875 0 0 Z " fill="#6A8F09" transform="translate(86,88)"/>
<path d="M0 0 C1.65 0 3.3 0 5 0 C5.33 0.66 5.66 1.32 6 2 C4.68 2 3.36 2 2 2 C1.67 2.99 1.34 3.98 1 5 C-2.37462715 4.45276317 -4.08235 3.9451 -7 2 C-4.69 2 -2.38 2 0 2 C0 1.34 0 0.68 0 0 Z " fill="#AFCB1C" transform="translate(96,64)"/>
<path d="M0 0 C1.5 1 1.5 1 3 3 C3.27345479 5.71846235 3.13491285 8.25677199 3 11 C2.01 11.33 1.02 11.66 0 12 C-1.00007341 8.8886605 -0.87515553 7.11166412 0 4 C0 2.68 0 1.36 0 0 Z " fill="#9AB03B" transform="translate(106,65)"/>
<path d="M0 0 C0.99 0 1.98 0 3 0 C3 2.97 3 5.94 3 9 C1.68 8.34 0.36 7.68 -1 7 C-0.67 4.69 -0.34 2.38 0 0 Z " fill="#A0C58C" transform="translate(138,63)"/>
<path d="M0 0 C0 0.99 0 1.98 0 3 C-1.875 4.0625 -1.875 4.0625 -4 5 C-4.66 4.67 -5.32 4.34 -6 4 C-6 4.99 -6 5.98 -6 7 C-6.66 7 -7.32 7 -8 7 C-7.25 4.0625 -7.25 4.0625 -6 1 C-3.81903388 0.04582732 -2.35817766 0 0 0 Z " fill="#DB4014" transform="translate(66,41)"/>
<path d="M0 0 C-0.33 3.3 -0.66 6.6 -1 10 C-1.66 10 -2.32 10 -3 10 C-3 7.03 -3 4.06 -3 1 C-1 0 -1 0 0 0 Z " fill="#79824C" transform="translate(108,139)"/>
<path d="M0 0 C2.475 0.99 2.475 0.99 5 2 C5 2.66 5 3.32 5 4 C4.34 4 3.68 4 3 4 C3 4.99 3 5.98 3 7 C3.66 7.33 4.32 7.66 5 8 C5 8.66 5 9.32 5 10 C3.68 9.67 2.36 9.34 1 9 C1.020625 8.071875 1.04125 7.14375 1.0625 6.1875 C1.15769604 2.97713989 1.15769604 2.97713989 0 0 Z " fill="#97B133" transform="translate(102,120)"/>
<path d="M0 0 C0.66 0.33 1.32 0.66 2 1 C0.32482761 4.53647504 -0.49280817 5.7911563 -4.1875 7.3125 C-5.5796875 7.6528125 -5.5796875 7.6528125 -7 8 C-7.33 7.34 -7.66 6.68 -8 6 C-5.36 4.02 -2.72 2.04 0 0 Z " fill="#A0B94D" transform="translate(60,94)"/>
<path d="M0 0 C0.99 0.495 0.99 0.495 2 1 C2.4140625 3.28515625 2.4140625 3.28515625 2.625 6.0625 C2.69976562 6.98160156 2.77453125 7.90070313 2.8515625 8.84765625 C2.92503906 9.91306641 2.92503906 9.91306641 3 11 C2.01 10.67 1.02 10.34 0 10 C0 6.7 0 3.4 0 0 Z " fill="#081900" transform="translate(107,86)"/>
<path d="M0 0 C1.32 0.33 2.64 0.66 4 1 C3.34 2.65 2.68 4.3 2 6 C0.35 5.67 -1.3 5.34 -3 5 C-2.01 3.35 -1.02 1.7 0 0 Z " fill="#B2D617" transform="translate(77,78)"/>
<path d="M0 0 C1.9375 0.3125 1.9375 0.3125 4 1 C4.33 1.99 4.66 2.98 5 4 C7.00016466 5.20882096 7.00016466 5.20882096 9 6 C9 6.66 9 7.32 9 8 C3.5 6.53333333 3.5 6.53333333 1.125 4 C0 2 0 2 0 0 Z " fill="#A1D126" transform="translate(60,72)"/>
<path d="M0 0 C4.51135667 2.19471406 6.06273348 4.41173718 8 9 C6.68 9 5.36 9 4 9 C3.67 7.02 3.34 5.04 3 3 C2.01 2.67 1.02 2.34 0 2 C0 1.34 0 0.68 0 0 Z " fill="#879E36" transform="translate(35,39)"/>
<path d="M0 0 C1.32 0.33 2.64 0.66 4 1 C4 1.99 4 2.98 4 4 C3.34 4 2.68 4 2 4 C2 4.66 2 5.32 2 6 C0.68 5.34 -0.64 4.68 -2 4 C-1.34 2.68 -0.68 1.36 0 0 Z " fill="#ABCB3E" transform="translate(105,116)"/>
<path d="M0 0 C0.33 0 0.66 0 1 0 C1.33 4.29 1.66 8.58 2 13 C0.68 12.67 -0.64 12.34 -2 12 C-2.33 11.01 -2.66 10.02 -3 9 C-2.34 9 -1.68 9 -1 9 C-0.67 6.03 -0.34 3.06 0 0 Z " fill="#F53E11" transform="translate(64,55)"/>
<path d="M0 0 C1.6875 1.5625 1.6875 1.5625 3 3 C0.69 3 -1.62 3 -4 3 C-4 2.34 -4 1.68 -4 1 C-5.98 1 -7.96 1 -10 1 C-10 0.67 -10 0.34 -10 0 C-3.375 -1.125 -3.375 -1.125 0 0 Z " fill="#B0CA4F" transform="translate(100,37)"/>
<path d="M0 0 C0.33 0.66 0.66 1.32 1 2 C3.01669827 3.13350534 3.01669827 3.13350534 5 4 C5 5.98 5 7.96 5 10 C4.67 9.34 4.34 8.68 4 8 C3.34 8 2.68 8 2 8 C0.74335022 5.09399739 0 3.20395416 0 0 Z " fill="#A2C08E" transform="translate(129,24)"/>
<path d="M0 0 C1.65 0 3.3 0 5 0 C4.34 2.64 3.68 5.28 3 8 C1.5 6.8125 1.5 6.8125 0 5 C-0.1875 2.3125 -0.1875 2.3125 0 0 Z " fill="#B1D336" transform="translate(101,60)"/>
<path d="M0 0 C0.33 0 0.66 0 1 0 C1 1.98 1 3.96 1 6 C-0.98 6.99 -0.98 6.99 -3 8 C-2.25 2.25 -2.25 2.25 0 0 Z " fill="#CDAF17" transform="translate(55,50)"/>
<path d="M0 0 C2.12038635 2.61514317 4.13091744 5.19637616 6 8 C3.03824877 7.38722388 1.61941217 6.74627478 -1 5 C-0.67 3.35 -0.34 1.7 0 0 Z " fill="#9EBD34" transform="translate(43,48)"/>
<path d="M0 0 C2.31 0 4.62 0 7 0 C6.67 1.65 6.34 3.3 6 5 C4.02 4.01 2.04 3.02 0 2 C0 1.34 0 0.68 0 0 Z " fill="#596B2C" transform="translate(125,43)"/>
<path d="M0 0 C2.64 0.33 5.28 0.66 8 1 C8 1.66 8 2.32 8 3 C4.7 3.33 1.4 3.66 -2 4 C-1.34 3.67 -0.68 3.34 0 3 C0 2.01 0 1.02 0 0 Z " fill="#B5D62A" transform="translate(88,37)"/>
<path d="M0 0 C0.66 0 1.32 0 2 0 C2 2.64 2 5.28 2 8 C1.01 7.67 0.02 7.34 -1 7 C-1.04254356 5.00045254 -1.04080783 2.99958364 -1 1 C-0.67 0.67 -0.34 0.34 0 0 Z " fill="#98AA3B" transform="translate(33,137)"/>
<path d="M0 0 C1.32 0 2.64 0 4 0 C4.33 0.99 4.66 1.98 5 3 C3.02 3.66 1.04 4.32 -1 5 C-0.67 3.35 -0.34 1.7 0 0 Z " fill="#9DCC74" transform="translate(119,100)"/>
<path d="M0 0 C0.33 0 0.66 0 1 0 C1 1.65 1 3.3 1 5 C1.66 5.33 2.32 5.66 3 6 C3 6.66 3 7.32 3 8 C2.34 8 1.68 8 1 8 C1 8.99 1 9.98 1 11 C0.34 11 -0.32 11 -1 11 C-0.67 7.37 -0.34 3.74 0 0 Z " fill="#A8CD15" transform="translate(51,53)"/>
<path d="M0 0 C0.99 0 1.98 0 3 0 C3.28875 0.61875 3.5775 1.2375 3.875 1.875 C4.93720042 4.13325765 4.93720042 4.13325765 7 6 C6.01 6.33 5.02 6.66 4 7 C1.8125 5.8125 1.8125 5.8125 0 4 C0 2.68 0 1.36 0 0 Z " fill="#5F7813" transform="translate(33,34)"/>
<path d="M0 0 C0.99 0 1.98 0 3 0 C2.67 0.99 2.34 1.98 2 3 C0.35 3.33 -1.3 3.66 -3 4 C-3 4.66 -3 5.32 -3 6 C-3.66 6 -4.32 6 -5 6 C-4.67 4.68 -4.34 3.36 -4 2 C-2.68 2 -1.36 2 0 2 C0 1.34 0 0.68 0 0 Z " fill="#A8C34A" transform="translate(112,56)"/>
<path d="M0 0 C0.66 0 1.32 0 2 0 C1.5205537 4.21912747 0.83374881 6.79663178 -2 10 C-1.54177532 6.53058454 -1.10868317 3.32604951 0 0 Z " fill="#BB9C2B" transform="translate(58,40)"/>
<path d="M0 0 C0.33 0.66 0.66 1.32 1 2 C1.66 2 2.32 2 3 2 C2.67 3.32 2.34 4.64 2 6 C0.68 5.67 -0.64 5.34 -2 5 C-2 3.68 -2 2.36 -2 1 C-1.34 0.67 -0.68 0.34 0 0 Z " fill="#B1D929" transform="translate(103,99)"/>
<path d="M0 0 C2.31 0.66 4.62 1.32 7 2 C7 3.32 7 4.64 7 6 C6.01 5.67 5.02 5.34 4 5 C4 4.34 4 3.68 4 3 C2.68 2.34 1.36 1.68 0 1 C0 0.67 0 0.34 0 0 Z " fill="#9DB741" transform="translate(92,97)"/>
<path d="M0 0 C0.66 0.33 1.32 0.66 2 1 C1.67 2.65 1.34 4.3 1 6 C0.01 6.33 -0.98 6.66 -2 7 C-1.125 1.125 -1.125 1.125 0 0 Z " fill="#B3D833" transform="translate(48,68)"/>
<path d="M0 0 C1.32 0 2.64 0 4 0 C4 0.99 4 1.98 4 3 C4.66 3 5.32 3 6 3 C6 4.32 6 5.64 6 7 C5.34 7 4.68 7 4 7 C3.566875 6.0409375 3.566875 6.0409375 3.125 5.0625 C2.17176549 2.84793921 2.17176549 2.84793921 0 2 C0 1.34 0 0.68 0 0 Z " fill="#A2C528" transform="translate(90,40)"/>
<path d="M0 0 C2.97 0.33 5.94 0.66 9 1 C6.4345406 3.5654594 4.52313332 3.54046087 1 4 C0.67 2.68 0.34 1.36 0 0 Z " fill="#A0C02D" transform="translate(35,33)"/>
<path d="M0 0 C1.8125 0.1875 1.8125 0.1875 4 1 C5.8125 3.4375 5.8125 3.4375 7 6 C6.67 6.66 6.34 7.32 6 8 C4.9970458 6.85675161 3.99770973 5.71032809 3 4.5625 C2.443125 3.92441406 1.88625 3.28632813 1.3125 2.62890625 C0 1 0 1 0 0 Z " fill="#8AA279" transform="translate(129,23)"/>
<path d="M0 0 C2.31 0 4.62 0 7 0 C7.33 0.66 7.66 1.32 8 2 C7.67 2.66 7.34 3.32 7 4 C4.08482708 2.92598892 2.22189824 2.22189824 0 0 Z " fill="#B1C7A1" transform="translate(111,14)"/>
<path d="M0 0 C0.33 0 0.66 0 1 0 C1 1.98 1 3.96 1 6 C-0.32 6.33 -1.64 6.66 -3 7 C-3 6.34 -3 5.68 -3 5 C-3.66 4.67 -4.32 4.34 -5 4 C-3.35 3.67 -1.7 3.34 0 3 C0 2.01 0 1.02 0 0 Z " fill="#B8D03E" transform="translate(35,122)"/>
<path d="M0 0 C1.22589844 0.15275391 1.22589844 0.15275391 2.4765625 0.30859375 C3.41628906 0.43427734 3.41628906 0.43427734 4.375 0.5625 C1.28690305 2.32712683 0.14187864 2.5625 -3.625 2.5625 C-4.615 1.9025 -5.605 1.2425 -6.625 0.5625 C-4.10446405 -0.69776798 -2.7707902 -0.35624445 0 0 Z " fill="#9CC386" transform="translate(79.625,113.4375)"/>
<path d="M0 0 C1.32 0 2.64 0 4 0 C5.60725635 3.21451269 5.05748185 6.43612536 5 10 C4.67 10 4.34 10 4 10 C3.566875 8.3603125 3.566875 8.3603125 3.125 6.6875 C2.18106796 2.95986155 2.18106796 2.95986155 0 0 Z " fill="#8DBD0B" transform="translate(96,47)"/>
<path d="M0 0 C2.64 0 5.28 0 8 0 C8 0.66 8 1.32 8 2 C5.36 2.33 2.72 2.66 0 3 C0 2.01 0 1.02 0 0 Z " fill="#4A4000" transform="translate(60,38)"/>
<path d="M0 0 C0.33 0.66 0.66 1.32 1 2 C0.34 2 -0.32 2 -1 2 C-1.268125 2.639375 -1.53625 3.27875 -1.8125 3.9375 C-3 6 -3 6 -6 7 C-4.52307692 2.32307692 -4.52307692 2.32307692 -1.875 0.6875 C-1.25625 0.460625 -0.6375 0.23375 0 0 Z " fill="#9DB249" transform="translate(72,16)"/>
<path d="M0 0 C0.66 0 1.32 0 2 0 C2.433125 0.9590625 2.433125 0.9590625 2.875 1.9375 C3.82823451 4.15206079 3.82823451 4.15206079 6 5 C6 5.66 6 6.32 6 7 C4.125 6.6875 4.125 6.6875 2 6 C0 3 0 3 0 0 Z " fill="#B8D69B" transform="translate(121,96)"/>
<path d="M0 0 C1.32 0 2.64 0 4 0 C4.33 1.98 4.66 3.96 5 6 C2.5 4.6875 2.5 4.6875 0 3 C0 2.01 0 1.02 0 0 Z " fill="#B1CF66" transform="translate(32,96)"/>
<path d="M0 0 C3.37503669 1.1858237 5.64722731 2.27573689 8 5 C5.125 4.75 5.125 4.75 2 4 C0.625 1.9375 0.625 1.9375 0 0 Z " fill="#9BB53D" transform="translate(84,91)"/>
<path d="M0 0 C2.475 0.99 2.475 0.99 5 2 C5 3.32 5 4.64 5 6 C3.0625 5.25 3.0625 5.25 1 4 C0.25 1.875 0.25 1.875 0 0 Z " fill="#7F9D2C" transform="translate(44,44)"/>
<path d="M0 0 C0.763125 0.20625 1.52625 0.4125 2.3125 0.625 C2.3125 1.285 2.3125 1.945 2.3125 2.625 C-0.3275 2.295 -2.9675 1.965 -5.6875 1.625 C-2.6875 -0.375 -2.6875 -0.375 0 0 Z " fill="#8CB529" transform="translate(120.6875,43.375)"/>
<path d="M0 0 C1.32 0 2.64 0 4 0 C4 0.66 4 1.32 4 2 C2.35 2 0.7 2 -1 2 C-0.67 1.34 -0.34 0.68 0 0 Z " fill="#98AD97" transform="translate(70,2)"/>
<path d="M0 0 C0.66 0 1.32 0 2 0 C2 0.66 2 1.32 2 2 C1.01 1.67 0.02 1.34 -1 1 C-0.67 0.67 -0.34 0.34 0 0 Z " fill="#AEAFAE" transform="translate(63,3)"/>
<path d="M0 0 C0.66 0 1.32 0 2 0 C2 0.66 2 1.32 2 2 C1.34 2 0.68 2 0 2 C0 1.34 0 0.68 0 0 Z " fill="#929292" transform="translate(50,7)"/>
<path d="M0 0 C2 1 2 1 2 1 Z " fill="#FFFFFF" transform="translate(30,20)"/>
<path d="M0 0 C2 1 2 1 2 1 Z " fill="#8B8B8B" transform="translate(53,7)"/>
</svg>
